SplineFontDB: 3.2
FontName: FBW-Display-EIS-A320
FullName: FBW Display-EIS A320
FamilyName: FBW Display-EIS
Weight: Book
Copyright: Licenced under GPLv3
Version: 001.000
ItalicAngle: 0
UnderlinePosition: -408
UnderlineWidth: 204
Ascent: 3276
Descent: 820
InvalidEm: 0
sfntRevision: 0x00010000
LayerCount: 2
Layer: 0 1 "Back" 1
Layer: 1 1 "Fore" 0
XUID: [1021 923 1708473057 6526907]
StyleMap: 0x0000
FSType: 0
OS2Version: 4
OS2_WeightWidthSlopeOnly: 0
OS2_UseTypoMetrics: 1
CreationTime: 1630565342
ModificationTime: 1634010783
PfmFamily: 17
TTFWeight: 400
TTFWidth: 5
LineGap: 369
VLineGap: 0
Panose: 2 0 5 9 0 0 0 0 0 0
OS2TypoAscent: 3276
OS2TypoAOffset: 0
OS2TypoDescent: -820
OS2TypoDOffset: 0
OS2TypoLinegap: 369
OS2WinAscent: 3287
OS2WinAOffset: 0
OS2WinDescent: 3
OS2WinDOffset: 0
HheadAscent: 3287
HheadAOffset: 0
HheadDescent: -3
HheadDOffset: 0
OS2SubXSize: 2662
OS2SubYSize: 2867
OS2SubXOff: 0
OS2SubYOff: 573
OS2SupXSize: 2662
OS2SupYSize: 2867
OS2SupXOff: 0
OS2SupYOff: 1966
OS2StrikeYSize: 204
OS2StrikeYPos: 1060
OS2CapHeight: 3277
OS2XHeight: 2284
OS2Vendor: 'PfEd'
OS2CodePages: 00000001.00000000
OS2UnicodeRanges: 00000003.00000000.00000000.00000000
MarkAttachClasses: 1
DEI: 91125
ShortTable: cvt  2
  136
  2594
EndShort
ShortTable: maxp 16
  1
  0
  54
  97
  5
  0
  0
  2
  0
  1
  1
  0
  64
  46
  0
  0
EndShort
LangName: 1033 "" "" "" "FontForge 2.0 : FBW Display-EIS A320 : 3-9-2021"
GaspTable: 1 65535 2 0
Encoding: UnicodeBmp
UnicodeInterp: none
NameList: AGL For New Fonts
DisplaySize: -48
AntiAlias: 1
FitToEm: 0
WinInfo: 0 29 12
BeginChars: 65538 382

StartChar: .notdef
Encoding: 65536 -1 0
Width: 2864
Flags: W
LayerCount: 2
Fore
SplineSet
136 0 m 1,0,-1
 136 2730 l 1,1,-1
 1225 2730 l 1,2,-1
 1225 0 l 1,3,-1
 136 0 l 1,0,-1
272 136 m 1,4,-1
 1089 136 l 1,5,-1
 1089 2594 l 1,6,-1
 272 2594 l 1,7,-1
 272 136 l 1,4,-1
EndSplineSet
Validated: 1
EndChar

StartChar: percent
Encoding: 37 37 4
Width: 2568
GlyphClass: 2
Flags: W
LayerCount: 2
Fore
SplineSet
595 2170 m 128,-1,1
 499 2170 499 2170 411.5 2207.5 c 128,-1,2
 324 2245 324 2245 261 2308 c 128,-1,3
 198 2371 198 2371 160.5 2458 c 128,-1,4
 123 2545 123 2545 123 2641 c 128,-1,5
 123 2737 123 2737 160.5 2824.5 c 128,-1,6
 198 2912 198 2912 261 2975 c 128,-1,7
 324 3038 324 3038 411.5 3075.5 c 128,-1,8
 499 3113 499 3113 595 3113 c 128,-1,9
 691 3113 691 3113 778 3075.5 c 128,-1,10
 865 3038 865 3038 928 2975 c 128,-1,11
 991 2912 991 2912 1028.5 2824.5 c 128,-1,12
 1066 2737 1066 2737 1066 2641 c 128,-1,13
 1066 2545 1066 2545 1028.5 2458 c 128,-1,14
 991 2371 991 2371 928 2308 c 128,-1,15
 865 2245 865 2245 778 2207.5 c 128,-1,0
 691 2170 691 2170 595 2170 c 128,-1,1
595 2429 m 128,-1,17
 683 2429 683 2429 745 2491.5 c 128,-1,18
 807 2554 807 2554 807 2641.5 c 128,-1,19
 807 2729 807 2729 745 2791.5 c 128,-1,20
 683 2854 683 2854 595 2854 c 128,-1,21
 507 2854 507 2854 445 2791.5 c 128,-1,22
 383 2729 383 2729 383 2641.5 c 128,-1,23
 383 2554 383 2554 445 2491.5 c 128,-1,16
 507 2429 507 2429 595 2429 c 128,-1,17
2110.5 2902 m 128,-1,25
 2158 2868 2158 2868 2167.5 2810 c 128,-1,26
 2177 2752 2177 2752 2143 2704 c 2,27,-1
 375 245 l 2,28,29
 341 197 341 197 283 187.5 c 128,-1,30
 225 178 225 178 177.5 212.5 c 128,-1,31
 130 247 130 247 120.5 304.5 c 128,-1,32
 111 362 111 362 145 410 c 2,33,-1
 1913 2869 l 2,34,35
 1947 2917 1947 2917 2005 2926.5 c 128,-1,24
 2063 2936 2063 2936 2110.5 2902 c 128,-1,25
2166 473 m 128,-1,37
 2166 377 2166 377 2128.5 289.5 c 128,-1,38
 2091 202 2091 202 2028 139 c 128,-1,39
 1965 76 1965 76 1878 38.5 c 128,-1,40
 1791 1 1791 1 1695 1 c 128,-1,41
 1599 1 1599 1 1511.5 38.5 c 128,-1,42
 1424 76 1424 76 1361 139 c 128,-1,43
 1298 202 1298 202 1260.5 289.5 c 128,-1,44
 1223 377 1223 377 1223 473 c 128,-1,45
 1223 569 1223 569 1260.5 656 c 128,-1,46
 1298 743 1298 743 1361 806.5 c 128,-1,47
 1424 870 1424 870 1511.5 907 c 128,-1,48
 1599 944 1599 944 1695 944 c 128,-1,49
 1791 944 1791 944 1878 907 c 128,-1,50
 1965 870 1965 870 2028 806.5 c 128,-1,51
 2091 743 2091 743 2128.5 656 c 128,-1,36
 2166 569 2166 569 2166 473 c 128,-1,37
1483 473 m 128,-1,53
 1483 385 1483 385 1545 323 c 128,-1,54
 1607 261 1607 261 1695 261 c 128,-1,55
 1783 261 1783 261 1845 323 c 128,-1,56
 1907 385 1907 385 1907 473 c 128,-1,57
 1907 561 1907 561 1845 623 c 128,-1,58
 1783 685 1783 685 1695 685 c 128,-1,59
 1607 685 1607 685 1545 623 c 128,-1,52
 1483 561 1483 561 1483 473 c 128,-1,53
EndSplineSet
Validated: 1
EndChar

StartChar: ampersand
Encoding: 38 38 5
Width: 2568
GlyphClass: 2
Flags: W
LayerCount: 2
Fore
SplineSet
377 2866 m 0,0,1
 474 2983 474 2983 614 3048 c 128,-1,2
 754 3113 754 3113 928 3113 c 0,3,4
 1022 3113 1022 3113 1114 3089.5 c 128,-1,5
 1206 3066 1206 3066 1286.5 3023.5 c 128,-1,6
 1367 2981 1367 2981 1436 2918.5 c 128,-1,7
 1505 2856 1505 2856 1554.5 2780.5 c 128,-1,8
 1604 2705 1604 2705 1631.5 2612.5 c 128,-1,9
 1659 2520 1659 2520 1659 2421 c 0,10,11
 1659 2159 1659 2159 1429 1887 c 0,12,13
 1355 1800 1355 1800 1262 1713 c 128,-1,14
 1169 1626 1169 1626 1048 1524 c 1,15,-1
 1667 817 l 1,16,-1
 1967 1118 l 2,17,18
 2008 1160 2008 1160 2067 1160 c 128,-1,19
 2126 1160 2126 1160 2167.5 1118.5 c 128,-1,20
 2209 1077 2209 1077 2208.5 1018.5 c 128,-1,21
 2208 960 2208 960 2167 919 c 2,22,-1
 1853 603 l 1,23,-1
 2174 236 l 2,24,25
 2212 192 2212 192 2208 133.5 c 128,-1,26
 2204 75 2204 75 2160 36.5 c 128,-1,27
 2116 -2 2116 -2 2058 2 c 128,-1,28
 2000 6 2000 6 1961 50 c 2,29,-1
 1653 402 l 1,30,-1
 1516 265 l 1,31,-1
 1515 264 l 2,32,33
 1369 124 1369 124 1253 67 c 0,34,35
 1121 1 1121 1 955 1 c 0,36,37
 836 1 836 1 725 27.5 c 128,-1,38
 614 54 614 54 522.5 102.5 c 128,-1,39
 431 151 431 151 355.5 221 c 128,-1,40
 280 291 280 291 228 375.5 c 128,-1,41
 176 460 176 460 147.5 561 c 128,-1,42
 119 662 119 662 119 771 c 0,43,44
 119 842 119 842 137 912 c 128,-1,45
 155 982 155 982 188.5 1045.5 c 128,-1,46
 222 1109 222 1109 261 1164 c 128,-1,47
 300 1219 300 1219 351 1276 c 0,48,49
 455 1394 455 1394 645 1556 c 1,50,-1
 432 1800 l 2,51,52
 324 1921 324 1921 260.5 2059.5 c 128,-1,53
 197 2198 197 2198 197 2343 c 0,54,55
 197 2486 197 2486 242.5 2622.5 c 128,-1,56
 288 2759 288 2759 377 2866 c 0,0,1
862 1737 m 1,57,58
 979 1836 979 1836 1064 1915 c 128,-1,59
 1149 1994 1149 1994 1214 2070 c 0,60,61
 1377 2263 1377 2263 1377 2421 c 0,62,63
 1377 2504 1377 2504 1341.5 2579.5 c 128,-1,64
 1306 2655 1306 2655 1246 2710 c 128,-1,65
 1186 2765 1186 2765 1103 2797.5 c 128,-1,66
 1020 2830 1020 2830 928 2830 c 0,67,68
 715 2830 715 2830 594 2685 c 0,69,70
 539 2619 539 2619 509.5 2530 c 128,-1,71
 480 2441 480 2441 480 2343 c 0,72,73
 480 2260 480 2260 521.5 2169 c 128,-1,74
 563 2078 563 2078 643 1988 c 2,75,-1
 644 1987 l 1,76,-1
 862 1737 l 1,57,58
832 1342 m 1,77,78
 654 1191 654 1191 562 1088 c 0,79,80
 402 907 402 907 402 771 c 0,81,82
 402 671 402 671 440 583 c 128,-1,83
 478 495 478 495 547 428.5 c 128,-1,84
 616 362 616 362 721.5 323 c 128,-1,85
 827 284 827 284 955 284 c 0,86,87
 1054 284 1054 284 1127 320 c 0,88,89
 1205 359 1205 359 1319 468 c 1,90,-1
 1466 616 l 1,91,-1
 832 1342 l 1,77,78
EndSplineSet
Validated: 1
EndChar

StartChar: parenleft
Encoding: 40 40 6
Width: 2568
GlyphClass: 2
Flags: W
LayerCount: 2
Fore
SplineSet
1395.5 179 m 128,-1,1
 1345 149 1345 149 1288.5 163 c 128,-1,2
 1232 177 1232 177 1201 227 c 2,3,-1
 775 937 l 2,4,5
 710 1045 710 1045 710 1172 c 2,6,-1
 710 1941 l 2,7,8
 710 2067 710 2067 775 2175 c 2,9,-1
 1201 2887 l 2,10,11
 1231 2937 1231 2937 1288 2951.5 c 128,-1,12
 1345 2966 1345 2966 1395.5 2935.5 c 128,-1,13
 1446 2905 1446 2905 1460 2848.5 c 128,-1,14
 1474 2792 1474 2792 1444 2741 c 2,15,-1
 1017 2030 l 2,16,17
 992 1989 992 1989 993 1941 c 2,18,-1
 993 1172 l 2,19,20
 993 1124 993 1124 1017 1083 c 2,21,-1
 1444 373 l 2,22,23
 1474 323 1474 323 1460 266 c 128,-1,0
 1446 209 1446 209 1395.5 179 c 128,-1,1
EndSplineSet
Validated: 1
EndChar

StartChar: parenright
Encoding: 41 41 7
Width: 2568
GlyphClass: 2
Flags: W
LayerCount: 2
Fore
SplineSet
779.5 2935 m 128,-1,1
 830 2965 830 2965 887 2951 c 128,-1,2
 944 2937 944 2937 974 2887 c 2,3,-1
 1400 2176 l 2,4,5
 1465 2068 1465 2068 1465 1942 c 2,6,-1
 1465 1173 l 2,7,8
 1465 1047 1465 1047 1400 939 c 2,9,-1
 974 227 l 2,10,11
 944 177 944 177 887 162.5 c 128,-1,12
 830 148 830 148 779.5 178 c 128,-1,13
 729 208 729 208 715 265 c 128,-1,14
 701 322 701 322 731 372 c 2,15,-1
 1158 1084 l 2,16,17
 1183 1125 1183 1125 1182 1173 c 2,18,-1
 1182 1942 l 2,19,20
 1182 1990 1182 1990 1158 2031 c 2,21,-1
 731 2741 l 2,22,23
 701 2791 701 2791 715 2848 c 128,-1,0
 729 2905 729 2905 779.5 2935 c 128,-1,1
EndSplineSet
Validated: 1
EndChar

StartChar: asterisk
Encoding: 42 42 8
Width: 2568
GlyphClass: 2
Flags: W
LayerCount: 2
Fore
SplineSet
1267 2253 m 2,0,1
 1267 1729 l 1,2,-1
 1638 2100 l 2,3,4
 1679 2141 1679 2141 1737.5 2141 c 128,-1,5
 1796 2141 1796 2141 1837.5 2099.5 c 128,-1,6
 1879 2058 1879 2058 1879 1999.5 c 128,-1,7
 1879 1941 1879 1941 1838 1899 c 2,8,-1
 1468 1530 l 1,9,-1
 1992 1530 l 2,10,11
 2051 1530 2051 1530 2092 1488.5 c 128,-1,12
 2133 1447 2133 1447 2133 1388 c 128,-1,13
 2133 1329 2133 1329 2091.5 1288 c 128,-1,14
 2050 1247 2050 1247 1992 1247 c 2,15,-1
 1467 1247 l 1,16,-1
 1838 876 l 2,17,18
 1879 835 1879 835 1879 776 c 128,-1,19
 1879 717 1879 717 1837.5 676 c 128,-1,20
 1796 635 1796 635 1737.5 635 c 128,-1,21
 1679 635 1679 635 1638 676 c 2,22,-1
 1267 1046 l 1,23,-1
 1267 523 l 2,24,25
 1267 464 1267 464 1226 422.5 c 128,-1,26
 1185 381 1185 381 1126 381 c 128,-1,27
 1067 381 1067 381 1025.5 422.5 c 128,-1,28
 984 464 984 464 984 523 c 2,29,-1
 984 1046 l 1,30,-1
 614 676 l 2,31,32
 573 635 573 635 514.5 635 c 128,-1,33
 456 635 456 635 414.5 676 c 128,-1,34
 373 717 373 717 373 776 c 128,-1,35
 373 835 373 835 414 876 c 2,36,-1
 785 1247 l 1,37,-1
 261 1247 l 2,38,39
 202 1247 202 1247 161 1288 c 128,-1,40
 120 1329 120 1329 120 1388 c 128,-1,41
 120 1447 120 1447 161.5 1488.5 c 128,-1,42
 203 1530 203 1530 261 1530 c 2,43,-1
 784 1530 l 1,44,-1
 414 1899 l 2,45,46
 373 1940 373 1940 373 1999 c 128,-1,47
 373 2058 373 2058 414.5 2099.5 c 128,-1,48
 456 2141 456 2141 514.5 2141 c 128,-1,49
 573 2141 573 2141 614 2100 c 2,50,-1
 984 1729 l 1,51,-1
 984 2253 l 2,52,53
 984 2312 984 2312 1025.5 2353 c 128,-1,54
 1067 2394 1067 2394 1126 2394 c 128,-1,55
 1185 2394 1185 2394 1226 2353 c 128,-1,56
 1267 2312 1267 2312 1267 2253 c 2,0,1
EndSplineSet
Validated: 1
EndChar

StartChar: plus
Encoding: 43 43 9
Width: 2568
GlyphClass: 2
Flags: W
LayerCount: 2
Fore
SplineSet
1070 2091 m 2,0,1
 1070 1564 l 1,2,-1
 1597 1564 l 2,3,4
 1656 1564 1656 1564 1697 1523 c 128,-1,5
 1738 1482 1738 1482 1738 1423 c 128,-1,6
 1738 1364 1738 1364 1696.5 1322.5 c 128,-1,7
 1655 1281 1655 1281 1597 1281 c 2,8,-1
 1070 1281 l 1,9,-1
 1070 755 l 2,10,11
 1070 696 1070 696 1028.5 654.5 c 128,-1,12
 987 613 987 613 928.5 613 c 128,-1,13
 870 613 870 613 828.5 654.5 c 128,-1,14
 787 696 787 696 787 755 c 2,15,-1
 787 1281 l 1,16,-1
 260 1281 l 2,17,18
 201 1281 201 1281 160 1322.5 c 128,-1,19
 119 1364 119 1364 119 1423 c 128,-1,20
 119 1482 119 1482 160.5 1523 c 128,-1,21
 202 1564 202 1564 260 1564 c 2,22,-1
 787 1564 l 1,23,-1
 787 2091 l 2,24,25
 787 2150 787 2150 828.5 2191.5 c 128,-1,26
 870 2233 870 2233 928.5 2233 c 128,-1,27
 987 2233 987 2233 1028.5 2191.5 c 128,-1,28
 1070 2150 1070 2150 1070 2091 c 2,0,1
EndSplineSet
Validated: 1
EndChar

StartChar: hyphen
Encoding: 45 45 10
Width: 2568
GlyphClass: 2
Flags: W
LayerCount: 2
Fore
SplineSet
119 1021.5 m 128,-1,1
 119 1080 119 1080 160.5 1121.5 c 128,-1,2
 202 1163 202 1163 260 1163 c 2,3,-1
 1832 1163 l 2,4,5
 1891 1163 1891 1163 1932 1121.5 c 128,-1,6
 1973 1080 1973 1080 1973 1021.5 c 128,-1,7
 1973 963 1973 963 1931.5 921.5 c 128,-1,8
 1890 880 1890 880 1832 880 c 2,9,-1
 260 880 l 2,10,11
 201 880 201 880 160 921.5 c 128,-1,0
 119 963 119 963 119 1021.5 c 128,-1,1
EndSplineSet
Validated: 1
EndChar

StartChar: period
Encoding: 46 46 11
Width: 2568
GlyphClass: 2
Flags: WO
LayerCount: 2
Fore
SplineSet
934 473 m 6,0,1
 934 538 934 538 980 584 c 132,-1,2
 1026 630 1026 630 1091 630 c 6,3,-1
 1405 630 l 6,4,5
 1470 630 1470 630 1516 584 c 132,-1,6
 1562 538 1562 538 1562 473 c 6,7,-1
 1562 158 l 6,8,9
 1562 93 1562 93 1516 47 c 132,-1,10
 1470 1 1470 1 1405 1 c 6,11,-1
 1091 1 l 6,12,13
 1026 1 1026 1 980 47 c 132,-1,14
 934 93 934 93 934 158 c 6,15,-1
 934 473 l 6,0,1
EndSplineSet
EndChar

StartChar: slash
Encoding: 47 47 12
Width: 2568
GlyphClass: 2
Flags: W
LayerCount: 2
Fore
SplineSet
1982.5 3093.5 m 128,-1,1
 2033 3064 2033 3064 2048 3007 c 128,-1,2
 2063 2950 2063 2950 2033 2900 c 2,3,-1
 383 71 l 2,4,5
 353 20 353 20 296.5 5.5 c 128,-1,6
 240 -9 240 -9 189.5 20.5 c 128,-1,7
 139 50 139 50 124 106.5 c 128,-1,8
 109 163 109 163 139 214 c 2,9,-1
 1789 3042 l 2,10,11
 1819 3093 1819 3093 1875.5 3108 c 128,-1,0
 1932 3123 1932 3123 1982.5 3093.5 c 128,-1,1
EndSplineSet
Validated: 1
EndChar

StartChar: zero
Encoding: 48 48 13
Width: 2568
GlyphClass: 2
Flags: W
LayerCount: 2
Fore
SplineSet
558 2595 m 0,0,1
 482 2485 482 2485 441.5 2337.5 c 128,-1,2
 401 2190 401 2190 401 2027 c 2,3,-1
 401 1085 l 2,4,5
 401 922 401 922 441.5 774 c 128,-1,6
 482 626 482 626 558 517 c 0,7,8
 720 283 720 283 1006 283 c 0,9,10
 1293 283 1293 283 1455 517 c 0,11,12
 1531 626 1531 626 1571 774 c 128,-1,13
 1611 922 1611 922 1611 1085 c 2,14,-1
 1611 2027 l 2,15,16
 1611 2190 1611 2190 1571 2337.5 c 128,-1,17
 1531 2485 1531 2485 1455 2595 c 0,18,19
 1293 2829 1293 2829 1006 2829 c 0,20,21
 721 2829 721 2829 558 2595 c 0,0,1
326 2756 m 0,22,23
 441 2922 441 2922 613.5 3017 c 128,-1,24
 786 3112 786 3112 1006 3112 c 0,25,26
 1118 3112 1118 3112 1220.5 3086.5 c 128,-1,27
 1323 3061 1323 3061 1407.5 3013 c 128,-1,28
 1492 2965 1492 2965 1562 2901 c 128,-1,29
 1632 2837 1632 2837 1688 2756 c 0,30,31
 1792 2606 1792 2606 1843 2417 c 128,-1,32
 1894 2228 1894 2228 1894 2027 c 2,33,-1
 1894 1085 l 2,34,35
 1894 885 1894 885 1842.5 695 c 128,-1,36
 1791 505 1791 505 1688 356 c 0,37,38
 1573 190 1573 190 1400.5 95 c 128,-1,39
 1228 0 1228 0 1006 0 c 0,40,41
 785 0 785 0 613 95 c 128,-1,42
 441 190 441 190 326 355 c 0,43,44
 222 505 222 505 170.5 694.5 c 128,-1,45
 119 884 119 884 119 1085 c 2,46,-1
 119 2027 l 2,47,48
 119 2227 119 2227 170.5 2416.5 c 128,-1,49
 222 2606 222 2606 326 2756 c 0,22,23
EndSplineSet
Validated: 1
EndChar

StartChar: one
Encoding: 49 49 14
Width: 2568
GlyphClass: 2
Flags: W
LayerCount: 2
Fore
SplineSet
1015 3083 m 0,0,1
 1043 3061 1043 3061 1057 3029.5 c 128,-1,2
 1071 2998 1071 2998 1069 2964 c 2,3,-1
 1069 284 l 1,4,-1
 1596 284 l 2,5,6
 1655 284 1655 284 1696.5 242.5 c 128,-1,7
 1738 201 1738 201 1738 142.5 c 128,-1,8
 1738 84 1738 84 1696.5 42.5 c 128,-1,9
 1655 1 1655 1 1596 1 c 2,10,-1
 260 1 l 2,11,12
 201 1 201 1 160 42.5 c 128,-1,13
 119 84 119 84 119 142.5 c 128,-1,14
 119 201 119 201 160.5 242.5 c 128,-1,15
 202 284 202 284 260 284 c 2,16,-1
 787 284 l 1,17,-1
 787 2556 l 1,18,-1
 373 2021 l 2,19,20
 337 1975 337 1975 279 1967 c 128,-1,21
 221 1959 221 1959 174.5 1995 c 128,-1,22
 128 2031 128 2031 121 2089 c 128,-1,23
 114 2147 114 2147 149 2194 c 2,24,-1
 816 3058 l 2,25,26
 852 3104 852 3104 910.5 3111.5 c 128,-1,27
 969 3119 969 3119 1015 3083 c 0,0,1
EndSplineSet
Validated: 1
EndChar

StartChar: two
Encoding: 50 50 15
Width: 2568
GlyphClass: 2
Flags: W
LayerCount: 2
Fore
SplineSet
400 2334 m 0,0,1
 387 2277 387 2277 337.5 2245.5 c 128,-1,2
 288 2214 288 2214 231 2227 c 128,-1,3
 174 2240 174 2240 142.5 2289 c 128,-1,4
 111 2338 111 2338 123 2396 c 0,5,6
 135 2448 135 2448 162 2513 c 0,7,8
 216 2645 216 2645 302 2755 c 0,9,10
 347 2812 347 2812 398.5 2862 c 128,-1,11
 450 2912 450 2912 521.5 2959 c 128,-1,12
 593 3006 593 3006 673 3039.5 c 128,-1,13
 753 3073 753 3073 855.5 3093 c 128,-1,14
 958 3113 958 3113 1070 3113 c 0,15,16
 1526 3113 1526 3113 1780 2898 c 0,17,18
 1917 2783 1917 2783 1985.5 2614 c 128,-1,19
 2054 2445 2054 2445 2054 2230 c 0,20,21
 2054 1705 2054 1705 1489 1306 c 2,22,-1
 404 540 l 1,23,-1
 404 283 l 1,24,-1
 1912 283 l 2,25,26
 1971 283 1971 283 2012.5 241.5 c 128,-1,27
 2054 200 2054 200 2054 141.5 c 128,-1,28
 2054 83 2054 83 2012.5 41.5 c 128,-1,29
 1971 0 1971 0 1912 0 c 2,30,-1
 302 0 l 2,31,32
 227 0 227 0 174 53 c 128,-1,33
 121 106 121 106 121 181 c 2,34,-1
 121 572 l 2,35,36
 121 626 121 626 145.5 673.5 c 128,-1,37
 170 721 170 721 214 752 c 2,38,-1
 1325 1537 l 2,39,40
 1405 1593 1405 1593 1470.5 1650.5 c 128,-1,41
 1536 1708 1536 1708 1593 1775.5 c 128,-1,42
 1650 1843 1650 1843 1688.5 1913 c 128,-1,43
 1727 1983 1727 1983 1749 2064 c 128,-1,44
 1771 2145 1771 2145 1771 2230 c 0,45,46
 1771 2536 1771 2536 1598 2682 c 0,47,48
 1423 2830 1423 2830 1070 2830 c 0,49,50
 718 2830 718 2830 525 2582 c 0,51,52
 427 2455 427 2455 400 2334 c 0,0,1
EndSplineSet
Validated: 1
EndChar

StartChar: three
Encoding: 51 51 16
Width: 2568
GlyphClass: 2
Flags: W
LayerCount: 2
Fore
SplineSet
527 2624 m 0,0,1
 490 2578 490 2578 432 2572 c 128,-1,2
 374 2566 374 2566 328.5 2603 c 128,-1,3
 283 2640 283 2640 276.5 2698 c 128,-1,4
 270 2756 270 2756 307 2802 c 0,5,6
 426 2950 426 2950 609 3031 c 128,-1,7
 792 3112 792 3112 1006 3112 c 0,8,9
 1123 3112 1123 3112 1234 3086 c 128,-1,10
 1345 3060 1345 3060 1440.5 3013 c 128,-1,11
 1536 2966 1536 2966 1615.5 2896 c 128,-1,12
 1695 2826 1695 2826 1751 2740.5 c 128,-1,13
 1807 2655 1807 2655 1838.5 2550 c 128,-1,14
 1870 2445 1870 2445 1870 2330 c 0,15,16
 1870 2216 1870 2216 1842 2115.5 c 128,-1,17
 1814 2015 1814 2015 1763.5 1934.5 c 128,-1,18
 1713 1854 1713 1854 1645.5 1791.5 c 128,-1,19
 1578 1729 1578 1729 1494 1682 c 1,20,21
 1573 1639 1573 1639 1641 1585.5 c 128,-1,22
 1709 1532 1709 1532 1771.5 1458.5 c 128,-1,23
 1834 1385 1834 1385 1877.5 1301 c 128,-1,24
 1921 1217 1921 1217 1947 1109.5 c 128,-1,25
 1973 1002 1973 1002 1973 883 c 0,26,27
 1973 749 1973 749 1944.5 633.5 c 128,-1,28
 1916 518 1916 518 1864 429 c 128,-1,29
 1812 340 1812 340 1745.5 272.5 c 128,-1,30
 1679 205 1679 205 1596 154 c 0,31,32
 1524 109 1524 109 1441.5 77.5 c 128,-1,33
 1359 46 1359 46 1280.5 30 c 128,-1,34
 1202 14 1202 14 1135.5 7 c 128,-1,35
 1069 0 1069 0 1006 0 c 0,36,37
 905 0 905 0 788.5 21.5 c 128,-1,38
 672 43 672 43 560 90 c 0,39,40
 497 117 497 117 439 151 c 128,-1,41
 381 185 381 185 325 231 c 128,-1,42
 269 277 269 277 220 337 c 128,-1,43
 171 397 171 397 135 467 c 0,44,45
 108 519 108 519 125.5 575 c 128,-1,46
 143 631 143 631 195 658 c 128,-1,47
 247 685 247 685 302.5 667.5 c 128,-1,48
 358 650 358 650 386 598 c 0,49,50
 471 435 471 435 670 351 c 0,51,52
 754 316 754 316 842.5 299.5 c 128,-1,53
 931 283 931 283 1006 283 c 0,54,55
 1115 283 1115 283 1233 309 c 128,-1,56
 1351 335 1351 335 1448 395 c 0,57,58
 1690 544 1690 544 1690 883 c 0,59,60
 1690 1224 1690 1224 1406 1405 c 0,61,62
 1292 1478 1292 1478 1160 1513.5 c 128,-1,63
 1028 1549 1028 1549 928 1549 c 0,64,65
 869 1549 869 1549 827.5 1590.5 c 128,-1,66
 786 1632 786 1632 786 1690.5 c 128,-1,67
 786 1749 786 1749 827.5 1790.5 c 128,-1,68
 869 1832 869 1832 928 1832 c 0,69,70
 1063 1832 1063 1832 1184.5 1862.5 c 128,-1,71
 1306 1893 1306 1893 1395 1952 c 0,72,73
 1587 2080 1587 2080 1587 2330 c 0,74,75
 1587 2434 1587 2434 1545.5 2525.5 c 128,-1,76
 1504 2617 1504 2617 1429.5 2684 c 128,-1,77
 1355 2751 1355 2751 1245.5 2790 c 128,-1,78
 1136 2829 1136 2829 1006 2829 c 0,79,80
 851 2829 851 2829 727 2773.5 c 128,-1,81
 603 2718 603 2718 527 2624 c 0,0,1
EndSplineSet
Validated: 1
EndChar

StartChar: four
Encoding: 52 52 17
Width: 2568
GlyphClass: 2
Flags: W
LayerCount: 2
Fore
SplineSet
1492 3112 m 0,0,1
 1546 3107 1546 3107 1583.5 3066.5 c 128,-1,2
 1621 3026 1621 3026 1621 2971 c 2,3,-1
 1621 1025 l 1,4,-1
 1911 1025 l 2,5,6
 1970 1025 1970 1025 2011 983.5 c 128,-1,7
 2052 942 2052 942 2052 883.5 c 128,-1,8
 2052 825 2052 825 2011 783.5 c 128,-1,9
 1970 742 1970 742 1911 742 c 2,10,-1
 1621 742 l 1,11,-1
 1621 143 l 2,12,13
 1621 84 1621 84 1579.5 42.5 c 128,-1,14
 1538 1 1538 1 1479.5 1 c 128,-1,15
 1421 1 1421 1 1379.5 42.5 c 128,-1,16
 1338 84 1338 84 1338 143 c 2,17,-1
 1338 742 l 1,18,-1
 261 742 l 2,19,20
 202 742 202 742 161 783.5 c 128,-1,21
 120 825 120 825 120 883 c 0,22,23
 120 927 120 927 145 964 c 1,24,-1
 1357 3042 l 2,25,26
 1378 3078 1378 3078 1415 3097 c 128,-1,27
 1452 3116 1452 3116 1492 3112 c 0,0,1
1338 1025 m 1,28,-1
 1338 2448 l 1,29,-1
 508 1025 l 1,30,-1
 1338 1025 l 1,28,-1
EndSplineSet
Validated: 1
EndChar

StartChar: five
Encoding: 53 53 18
Width: 2568
GlyphClass: 2
Flags: W
LayerCount: 2
Fore
SplineSet
120 2931 m 2,0,1
 120 3006 120 3006 173 3058.5 c 128,-1,2
 226 3111 226 3111 301 3111 c 2,3,-1
 1755 3111 l 2,4,5
 1814 3111 1814 3111 1855 3070 c 128,-1,6
 1896 3029 1896 3029 1896 2970 c 128,-1,7
 1896 2911 1896 2911 1855 2870 c 128,-1,8
 1814 2829 1814 2829 1755 2829 c 2,9,-1
 403 2829 l 1,10,-1
 403 2012 l 1,11,-1
 891 2012 l 2,12,13
 1075 2012 1075 2012 1262.5 1953 c 128,-1,14
 1450 1894 1450 1894 1602 1778 c 0,15,16
 1685 1714 1685 1714 1752 1636 c 128,-1,17
 1819 1558 1819 1558 1869.5 1462.5 c 128,-1,18
 1920 1367 1920 1367 1947.5 1250.5 c 128,-1,19
 1975 1134 1975 1134 1975 1006 c 128,-1,20
 1975 878 1975 878 1947.5 762 c 128,-1,21
 1920 646 1920 646 1869.5 550 c 128,-1,22
 1819 454 1819 454 1752.5 376 c 128,-1,23
 1686 298 1686 298 1602 234 c 0,24,25
 1449 117 1449 117 1261.5 58.5 c 128,-1,26
 1074 0 1074 0 891 0 c 0,27,28
 602 0 602 0 362 112 c 0,29,30
 237 170 237 170 167 234 c 0,31,32
 124 273 124 273 121 331.5 c 128,-1,33
 118 390 118 390 158 433 c 0,34,35
 197 476 197 476 255 479 c 128,-1,36
 313 482 313 482 356 444 c 0,37,38
 396 408 396 408 481 368 c 0,39,40
 664 283 664 283 891 283 c 0,41,42
 1031 283 1031 283 1174.5 328 c 128,-1,43
 1318 373 1318 373 1431 459 c 0,44,45
 1553 552 1553 552 1622.5 688 c 128,-1,46
 1692 824 1692 824 1692 1006.5 c 128,-1,47
 1692 1189 1692 1189 1622.5 1324.5 c 128,-1,48
 1553 1460 1553 1460 1431 1553 c 0,49,50
 1318 1639 1318 1639 1174.5 1684 c 128,-1,51
 1031 1729 1031 1729 891 1729 c 2,52,-1
 301 1729 l 2,53,54
 226 1729 226 1729 173 1782 c 128,-1,55
 120 1835 120 1835 120 1910 c 2,56,-1
 120 2931 l 2,0,1
EndSplineSet
Validated: 1
EndChar

StartChar: six
Encoding: 54 54 19
Width: 2568
GlyphClass: 2
Flags: W
LayerCount: 2
Fore
SplineSet
408 2905 m 0,0,1
 539 3010 539 3010 712.5 3061.5 c 128,-1,2
 886 3113 886 3113 1085 3113 c 0,3,4
 1419 3113 1419 3113 1678 2958 c 0,5,6
 1761 2909 1761 2909 1827 2848 c 0,7,8
 1863 2815 1863 2815 1883 2790 c 0,9,10
 1920 2744 1920 2744 1913.5 2686 c 128,-1,11
 1907 2628 1907 2628 1861 2592 c 0,12,13
 1816 2556 1816 2556 1758 2561.5 c 128,-1,14
 1700 2567 1700 2567 1663 2613 c 0,15,16
 1619 2664 1619 2664 1533 2715 c 0,17,18
 1341 2830 1341 2830 1085 2830 c 0,19,20
 927 2830 927 2830 799.5 2792 c 128,-1,21
 672 2754 672 2754 584 2684 c 0,22,23
 402 2539 402 2539 402 2267 c 0,24,25
 402 2265 402 2265 402 2264 c 2,26,-1
 402 1661 l 1,27,28
 528 1776 528 1776 701 1835.5 c 128,-1,29
 874 1895 874 1895 1085 1895 c 0,30,31
 1313 1895 1313 1895 1495.5 1826.5 c 128,-1,32
 1678 1758 1678 1758 1806 1625 c 0,33,34
 1930 1497 1930 1497 1991 1323.5 c 128,-1,35
 2052 1150 2052 1150 2052 947 c 0,36,37
 2052 722 2052 722 1979.5 542.5 c 128,-1,38
 1907 363 1907 363 1769 238 c 0,39,40
 1638 119 1638 119 1462.5 60 c 128,-1,41
 1287 1 1287 1 1085 1 c 128,-1,42
 883 1 883 1 707.5 60 c 128,-1,43
 532 119 532 119 401 238 c 0,44,45
 263 363 263 363 191 543 c 128,-1,46
 119 723 119 723 119 947 c 2,47,-1
 119 2264 l 2,48,49
 119 2468 119 2468 193.5 2630.5 c 128,-1,50
 268 2793 268 2793 408 2905 c 0,0,1
402 947 m 0,51,52
 402 619 402 619 591 448 c 0,53,54
 678 369 678 369 803.5 326.5 c 128,-1,55
 929 284 929 284 1085 284 c 128,-1,56
 1241 284 1241 284 1366.5 326.5 c 128,-1,57
 1492 369 1492 369 1579 448 c 0,58,59
 1768 620 1768 620 1769 947 c 0,60,61
 1769 1101 1769 1101 1726 1223 c 128,-1,62
 1683 1345 1683 1345 1602 1429 c 0,63,64
 1426 1612 1426 1612 1085.5 1612 c 128,-1,65
 745 1612 745 1612 568 1429 c 0,66,67
 487 1345 487 1345 444.5 1223 c 128,-1,68
 402 1101 402 1101 402 947 c 0,51,52
EndSplineSet
Validated: 1
EndChar

StartChar: seven
Encoding: 55 55 20
Width: 2568
GlyphClass: 2
Flags: W
LayerCount: 2
Fore
SplineSet
120 2971.5 m 128,-1,1
 120 3030 120 3030 161.5 3071.5 c 128,-1,2
 203 3113 203 3113 261 3113 c 2,3,-1
 1872 3113 l 2,4,5
 1947 3113 1947 3113 2000 3060 c 128,-1,6
 2053 3007 2053 3007 2053 2932 c 2,7,-1
 2053 2627 l 2,8,9
 2053 2535 2053 2535 2001 2459 c 2,10,-1
 378 63 l 2,11,12
 345 15 345 15 287.5 4 c 128,-1,13
 230 -7 230 -7 181.5 26 c 128,-1,14
 133 59 133 59 122 116.5 c 128,-1,15
 111 174 111 174 144 222 c 2,16,-1
 1767 2618 l 2,17,18
 1770 2622 1770 2622 1770 2627 c 2,19,-1
 1770 2830 l 1,20,-1
 261 2830 l 2,21,22
 202 2830 202 2830 161 2871.5 c 128,-1,0
 120 2913 120 2913 120 2971.5 c 128,-1,1
EndSplineSet
Validated: 1
EndChar

StartChar: eight
Encoding: 56 56 21
Width: 2568
GlyphClass: 2
Flags: W
LayerCount: 2
Fore
SplineSet
1086 2829 m 132,-1,1
 957 2829 957 2829 847.5 2790 c 132,-1,2
 738 2751 738 2751 663.5 2684 c 132,-1,3
 589 2617 589 2617 547 2526 c 132,-1,4
 505 2435 505 2435 505 2331 c 4,5,6
 505 2225 505 2225 558.5 2134 c 132,-1,7
 612 2043 612 2043 707 1972 c 4,8,9
 796 1905 796 1905 900 1868.5 c 132,-1,10
 1004 1832 1004 1832 1086 1832 c 132,-1,11
 1168 1832 1168 1832 1272 1868.5 c 132,-1,12
 1376 1905 1376 1905 1465 1972 c 4,13,14
 1560 2044 1560 2044 1613 2135 c 132,-1,15
 1666 2226 1666 2226 1666 2331 c 4,16,17
 1666 2434 1666 2434 1624.5 2525.5 c 132,-1,18
 1583 2617 1583 2617 1508.5 2684 c 132,-1,19
 1434 2751 1434 2751 1324.5 2790 c 132,-1,0
 1215 2829 1215 2829 1086 2829 c 132,-1,1
1570 1701 m 5,20,21
 1631 1668 1631 1668 1685 1628 c 4,22,23
 1765 1569 1765 1569 1829 1496.5 c 132,-1,24
 1893 1424 1893 1424 1944.5 1332.5 c 132,-1,25
 1996 1241 1996 1241 2024 1126 c 132,-1,26
 2052 1011 2052 1011 2052 883 c 4,27,28
 2052 779 2052 779 2033 685 c 132,-1,29
 2014 591 2014 591 1981 515.5 c 132,-1,30
 1948 440 1948 440 1900 374 c 132,-1,31
 1852 308 1852 308 1797 257.5 c 132,-1,32
 1742 207 1742 207 1677 166 c 4,33,34
 1605 120 1605 120 1523 86.5 c 132,-1,35
 1441 53 1441 53 1363 35 c 132,-1,36
 1285 17 1285 17 1217 8.5 c 132,-1,37
 1149 0 1149 0 1086 0 c 132,-1,38
 1023 0 1023 0 955 8.5 c 132,-1,39
 887 17 887 17 809 35 c 132,-1,40
 731 53 731 53 648.5 86.5 c 132,-1,41
 566 120 566 120 494 166 c 4,42,43
 429 207 429 207 374.5 257.5 c 132,-1,44
 320 308 320 308 272 374 c 132,-1,45
 224 440 224 440 191 515.5 c 132,-1,46
 158 591 158 591 138.5 685 c 132,-1,47
 119 779 119 779 119 883 c 4,48,49
 119 1011 119 1011 147.5 1126 c 132,-1,50
 176 1241 176 1241 227 1332.5 c 132,-1,51
 278 1424 278 1424 342 1496.5 c 132,-1,52
 406 1569 406 1569 486 1628 c 4,53,54
 541 1668 541 1668 602 1701 c 5,55,56
 568 1723 568 1723 537 1746 c 4,57,58
 470 1796 470 1796 415.5 1855.5 c 132,-1,59
 361 1915 361 1915 316.5 1988 c 132,-1,60
 272 2061 272 2061 247.5 2149 c 132,-1,61
 223 2237 223 2237 223 2331 c 4,62,63
 223 2445 223 2445 254 2550.5 c 132,-1,64
 285 2656 285 2656 341 2741 c 132,-1,65
 397 2826 397 2826 476.5 2896 c 132,-1,66
 556 2966 556 2966 651.5 3013.5 c 132,-1,67
 747 3061 747 3061 858 3086.5 c 132,-1,68
 969 3112 969 3112 1086 3112 c 132,-1,69
 1203 3112 1203 3112 1314 3086.5 c 132,-1,70
 1425 3061 1425 3061 1520 3013.5 c 132,-1,71
 1615 2966 1615 2966 1694.5 2896 c 132,-1,72
 1774 2826 1774 2826 1830.5 2741 c 132,-1,73
 1887 2656 1887 2656 1918 2551 c 132,-1,74
 1949 2446 1949 2446 1949 2331 c 4,75,76
 1949 2236 1949 2236 1924.5 2148.5 c 132,-1,77
 1900 2061 1900 2061 1855.5 1988 c 132,-1,78
 1811 1915 1811 1915 1756.5 1855.5 c 132,-1,79
 1702 1796 1702 1796 1635 1746 c 4,80,81
 1604 1722 1604 1722 1570 1701 c 5,20,21
1086 1549 m 132,-1,83
 993 1549 993 1549 874 1511.5 c 132,-1,84
 755 1474 755 1474 654 1400 c 4,85,86
 402 1215 402 1215 402 883 c 4,87,88
 402 559 402 559 646 404 c 4,89,90
 745 342 745 342 864 312.5 c 132,-1,91
 983 283 983 283 1086 283 c 132,-1,92
 1189 283 1189 283 1308 312 c 132,-1,93
 1427 341 1427 341 1526 404 c 4,94,95
 1769 559 1769 559 1769 880 c 4,96,97
 1769 882 1769 882 1769 883 c 132,-1,98
 1769 884 1769 884 1769 886 c 4,99,100
 1769 887 1769 887 1769 889 c 4,101,102
 1769 1216 1769 1216 1518 1400 c 4,103,104
 1416 1475 1416 1475 1297.5 1512 c 132,-1,82
 1179 1549 1179 1549 1086 1549 c 132,-1,83
EndSplineSet
Validated: 1
EndChar

StartChar: nine
Encoding: 57 57 22
Width: 2568
GlyphClass: 2
Flags: W
LayerCount: 2
Fore
SplineSet
1763 209 m 0,0,1
 1632 104 1632 104 1458 52.5 c 128,-1,2
 1284 1 1284 1 1085 1 c 0,3,4
 751 1 751 1 492 156 c 0,5,6
 409 205 409 205 343 266 c 0,7,8
 307 299 307 299 287 324 c 0,9,10
 250 370 250 370 256.5 428 c 128,-1,11
 263 486 263 486 309 523 c 0,12,13
 354 559 354 559 412 553 c 128,-1,14
 470 547 470 547 507 502 c 0,15,16
 551 451 551 451 637 399 c 0,17,18
 829 284 829 284 1085 284 c 0,19,20
 1243 284 1243 284 1370.5 322 c 128,-1,21
 1498 360 1498 360 1586 430 c 0,22,23
 1769 576 1769 576 1769 850 c 2,24,-1
 1769 1453 l 1,25,26
 1643 1338 1643 1338 1470 1278.5 c 128,-1,27
 1297 1219 1297 1219 1085 1219 c 0,28,29
 857 1219 857 1219 674.5 1287.5 c 128,-1,30
 492 1356 492 1356 365 1489 c 0,31,32
 241 1617 241 1617 180 1791 c 128,-1,33
 119 1965 119 1965 119 2167 c 0,34,35
 119 2392 119 2392 191 2571.5 c 128,-1,36
 263 2751 263 2751 401 2876 c 0,37,38
 532 2995 532 2995 707.5 3054 c 128,-1,39
 883 3113 883 3113 1085 3113 c 128,-1,40
 1287 3113 1287 3113 1462.5 3054 c 128,-1,41
 1638 2995 1638 2995 1769 2876 c 0,42,43
 1907 2751 1907 2751 1979.5 2571 c 128,-1,44
 2052 2391 2052 2391 2052 2167 c 2,45,-1
 2052 850 l 2,46,47
 2052 646 2052 646 1977.5 483.5 c 128,-1,48
 1903 321 1903 321 1763 209 c 0,0,1
1769 2167 m 0,49,50
 1769 2495 1769 2495 1579 2666 c 0,51,52
 1492 2745 1492 2745 1366.5 2787.5 c 128,-1,53
 1241 2830 1241 2830 1085 2830 c 128,-1,54
 929 2830 929 2830 803.5 2788 c 128,-1,55
 678 2746 678 2746 591 2666 c 0,56,57
 402 2494 402 2494 402 2167 c 0,58,59
 402 2013 402 2013 444.5 1891 c 128,-1,60
 487 1769 487 1769 568 1685 c 0,61,62
 744 1502 744 1502 1085 1502 c 128,-1,63
 1426 1502 1426 1502 1602 1685 c 0,64,65
 1683 1769 1683 1769 1726 1891 c 128,-1,66
 1769 2013 1769 2013 1769 2167 c 0,49,50
EndSplineSet
Validated: 1
EndChar

StartChar: colon
Encoding: 58 58 23
Width: 2568
GlyphClass: 2
Flags: W
LayerCount: 2
Fore
SplineSet
473 2044 m 2,0,1
 473 2109 473 2109 519.5 2155 c 128,-1,2
 566 2201 566 2201 631 2201 c 2,3,-1
 945 2201 l 2,4,5
 1010 2201 1010 2201 1056 2155 c 128,-1,6
 1102 2109 1102 2109 1102 2044 c 2,7,-1
 1102 1730 l 2,8,9
 1102 1665 1102 1665 1056 1619 c 128,-1,10
 1010 1573 1010 1573 945 1573 c 2,11,-1
 631 1573 l 2,12,13
 566 1573 566 1573 519.5 1619 c 128,-1,14
 473 1665 473 1665 473 1730 c 2,15,-1
 473 2044 l 2,0,1
473 787 m 2,16,17
 473 852 473 852 519.5 898 c 128,-1,18
 566 944 566 944 631 944 c 2,19,-1
 945 944 l 2,20,21
 1010 944 1010 944 1056 898 c 128,-1,22
 1102 852 1102 852 1102 787 c 2,23,-1
 1102 473 l 2,24,25
 1102 408 1102 408 1056 362 c 128,-1,26
 1010 316 1010 316 945 316 c 2,27,-1
 631 316 l 2,28,29
 566 316 566 316 519.5 362 c 128,-1,30
 473 408 473 408 473 473 c 2,31,-1
 473 787 l 2,16,17
EndSplineSet
Validated: 1
EndChar

StartChar: A
Encoding: 65 65 24
Width: 2568
GlyphClass: 2
Flags: W
LayerCount: 2
Fore
SplineSet
1127 2605 m 1,0,-1
 514 1147 l 1,1,-1
 1739 1147 l 1,2,-1
 1127 2605 l 1,0,-1
1890 129 m 2,3,4
 1823 865 l 1,5,-1
 431 865 l 1,6,-1
 364 129 l 2,7,8
 359 71 359 71 314 33.5 c 128,-1,9
 269 -4 269 -4 210.5 1 c 128,-1,10
 152 6 152 6 114.5 51.5 c 128,-1,11
 77 97 77 97 82 155 c 2,12,-1
 161 1017 l 2,13,14
 162 1043 162 1043 173 1066 c 2,15,-1
 995 3021 l 2,16,17
 1016 3078 1016 3078 1072 3101 c 0,18,19
 1136 3127 1136 3127 1196 3094 c 0,20,21
 1240 3069 1240 3069 1259 3022 c 2,22,-1
 2081 1064 l 2,23,24
 2091 1040 2091 1040 2093 1015 c 2,25,-1
 2171 155 l 2,26,27
 2177 96 2177 96 2139.5 51 c 128,-1,28
 2102 6 2102 6 2043.5 1 c 128,-1,29
 1985 -4 1985 -4 1940 33.5 c 128,-1,30
 1895 71 1895 71 1890 129 c 2,3,4
EndSplineSet
Validated: 1
EndChar

StartChar: B
Encoding: 66 66 25
Width: 2568
GlyphClass: 2
Flags: W
LayerCount: 2
Fore
SplineSet
119 2968 m 6,0,1
 119 3027 119 3027 161 3069 c 128,-1,2
 203 3111 203 3111 262 3111 c 2,3,-1
 1376 3111 l 2,4,5
 1578 3111 1578 3111 1738 3031.5 c 128,-1,6
 1898 2952 1898 2952 2008 2815 c 0,7,8
 2107 2693 2107 2693 2158 2543 c 128,-1,9
 2209 2393 2209 2393 2209 2247 c 0,10,11
 2209 2100 2209 2100 2142.5 1952 c 128,-1,12
 2076 1804 2076 1804 1963 1686 c 0,13,14
 1890 1610 1890 1610 1803 1552 c 1,15,16
 1891 1490 1891 1490 1966 1407 c 0,17,18
 2077 1283 2077 1283 2143 1131.5 c 128,-1,19
 2209 980 2209 980 2209 833 c 0,20,21
 2209 687 2209 687 2157.5 541 c 128,-1,22
 2106 395 2106 395 2006 278 c 0,23,24
 1895 148 1895 148 1735.5 74 c 128,-1,25
 1576 0 1576 0 1376 0 c 2,26,-1
 262 0 l 2,27,28
 202 0 202 0 160.5 42 c 128,-1,29
 119 84 119 84 119 143 c 2,30,-1
 119 2968 l 6,0,1
1360 1697 m 2,31,32
 1470 1697 1470 1697 1573.5 1746 c 128,-1,33
 1677 1795 1677 1795 1759 1881 c 0,34,35
 1838 1965 1838 1965 1882 2062.5 c 128,-1,36
 1926 2160 1926 2160 1926 2247 c 0,37,38
 1926 2346 1926 2346 1890.5 2450.5 c 128,-1,39
 1855 2555 1855 2555 1788 2638 c 0,40,41
 1635 2829 1635 2829 1376 2829 c 2,42,-1
 401 2829 l 1,43,-1
 401 1697 l 1,44,-1
 1360 1697 l 2,31,32
401 1414 m 1,45,-1
 401 283 l 1,46,-1
 1376 283 l 2,47,48
 1639 283 1639 283 1791 461 c 0,49,50
 1856 538 1856 538 1891 636.5 c 128,-1,51
 1926 735 1926 735 1926 833 c 0,52,53
 1926 921 1926 921 1881.5 1024.5 c 128,-1,54
 1837 1128 1837 1128 1756 1217 c 0,55,56
 1672 1310 1672 1310 1569.5 1362 c 128,-1,57
 1467 1414 1467 1414 1360 1414 c 2,58,-1
 401 1414 l 1,45,-1
EndSplineSet
Validated: 1
EndChar

StartChar: C
Encoding: 67 67 26
Width: 2568
GlyphClass: 2
Flags: W
LayerCount: 2
Fore
SplineSet
402 2096 m 2,0,-1
 402 1143 l 2,1,2
 402 1073 402 1073 404.5 1017.5 c 128,-1,3
 407 962 407 962 415 884.5 c 128,-1,4
 423 807 423 807 443 732.5 c 128,-1,5
 463 658 463 658 493 594 c 0,6,7
 560 453 560 453 679 377 c 0,8,9
 825 284 825 284 1057 284 c 0,10,11
 1368 284 1368 284 1580 444 c 0,12,13
 1667 509 1667 509 1735.5 595 c 128,-1,14
 1804 681 1804 681 1866 788 c 0,15,16
 1895 839 1895 839 1952 854 c 128,-1,17
 2009 869 2009 869 2059.5 840 c 128,-1,18
 2110 811 2110 811 2125.5 754 c 128,-1,19
 2141 697 2141 697 2111 647 c 0,20,21
 2077 589 2077 589 2043.5 538 c 128,-1,22
 2010 487 2010 487 1965 429 c 128,-1,23
 1920 371 1920 371 1865.5 317 c 128,-1,24
 1811 263 1811 263 1750 218 c 0,25,26
 1462 2 1462 2 1057 1 c 0,27,28
 743 1 743 1 527 139 c 0,29,30
 340 258 340 258 238 472 c 0,31,32
 205 542 205 542 181 624 c 128,-1,33
 157 706 157 706 145.5 771.5 c 128,-1,34
 134 837 134 837 127.5 916.5 c 128,-1,35
 121 996 121 996 120 1039.5 c 128,-1,36
 119 1083 119 1083 119 1143 c 2,37,-1
 119 2096 l 2,38,39
 119 2168 119 2168 126.5 2241 c 128,-1,40
 134 2314 134 2314 151 2398.5 c 128,-1,41
 168 2483 168 2483 202 2569.5 c 128,-1,42
 236 2656 236 2656 283 2731 c 0,43,44
 337 2816 337 2816 408.5 2884 c 128,-1,45
 480 2952 480 2952 573.5 3004.5 c 128,-1,46
 667 3057 667 3057 787 3085 c 128,-1,47
 907 3113 907 3113 1046 3113 c 0,48,49
 1237 3113 1237 3113 1388.5 3072 c 128,-1,50
 1540 3031 1540 3031 1669 2947 c 0,51,52
 1728 2908 1728 2908 1784.5 2859.5 c 128,-1,53
 1841 2811 1841 2811 1896 2751.5 c 128,-1,54
 1951 2692 1951 2692 1996.5 2638 c 128,-1,55
 2042 2584 2042 2584 2100 2508 c 0,56,57
 2136 2462 2136 2462 2129 2404 c 128,-1,58
 2122 2346 2122 2346 2075.5 2310 c 128,-1,59
 2029 2274 2029 2274 1971 2281 c 128,-1,60
 1913 2288 1913 2288 1877 2335 c 0,61,62
 1764 2480 1764 2480 1681.5 2567.5 c 128,-1,63
 1599 2655 1599 2655 1514 2711 c 0,64,65
 1423 2770 1423 2770 1311.5 2800 c 128,-1,66
 1200 2830 1200 2830 1046 2830 c 0,67,68
 680 2830 680 2830 522 2580 c 0,69,70
 458 2479 458 2479 430 2351.5 c 128,-1,71
 402 2224 402 2224 402 2096 c 2,0,-1
EndSplineSet
Validated: 1
EndChar

StartChar: D
Encoding: 68 68 27
Width: 2568
GlyphClass: 2
Flags: W
LayerCount: 2
Fore
SplineSet
119 2970 m 2,0,1
 119 3029 119 3029 160.5 3071 c 128,-1,2
 202 3113 202 3113 262 3113 c 2,3,-1
 1046 3113 l 2,4,5
 1282 3113 1282 3113 1472.5 3027.5 c 128,-1,6
 1663 2942 1663 2942 1795 2774 c 0,7,8
 2051 2449 2051 2449 2052 1871 c 2,9,-1
 2052 1243 l 2,10,11
 2052 665 2052 665 1795 340 c 0,12,13
 1662 172 1662 172 1471.5 86.5 c 128,-1,14
 1281 1 1281 1 1046 1 c 2,15,-1
 262 1 l 2,16,17
 203 1 203 1 161 43 c 128,-1,18
 119 85 119 85 119 144 c 2,19,-1
 119 2970 l 2,0,1
402 2830 m 1,20,-1
 402 284 l 1,21,-1
 1046 284 l 2,22,23
 1391 284 1391 284 1573 515 c 0,24,25
 1667 633 1667 633 1718 815.5 c 128,-1,26
 1769 998 1769 998 1769 1243 c 2,27,28
 1769 1871 l 2,29,30
 1769 2115 1769 2115 1718 2297.5 c 128,-1,31
 1667 2480 1667 2480 1573 2599 c 0,32,33
 1391 2830 1391 2830 1046 2830 c 2,34,-1
 402 2830 l 1,20,-1
EndSplineSet
Validated: 1
EndChar

StartChar: E
Encoding: 69 69 28
Width: 2568
GlyphClass: 2
Flags: W
LayerCount: 2
Fore
SplineSet
119 2970 m 2,0,1
 119 3029 119 3029 160.5 3071 c 128,-1,2
 202 3113 202 3113 262 3113 c 2,3,-1
 2107 3113 l 2,4,5
 2166 3113 2166 3113 2207.5 3071.5 c 128,-1,6
 2249 3030 2249 3030 2249 2971.5 c 128,-1,7
 2249 2913 2249 2913 2207.5 2871.5 c 128,-1,8
 2166 2830 2166 2830 2107 2830 c 2,9,-1
 402 2830 l 1,10,-1
 402 1698 l 1,11,-1
 1400 1698 l 2,12,13
 1459 1698 1459 1698 1500 1656.5 c 128,-1,14
 1541 1615 1541 1615 1541 1556.5 c 128,-1,15
 1541 1498 1541 1498 1500 1456.5 c 128,-1,16
 1459 1415 1459 1415 1400 1415 c 2,17,-1
 402 1415 l 1,18,-1
 402 283 l 1,19,-1
 2107 283 l 2,20,21
 2166 283 2166 283 2207.5 241.5 c 128,-1,22
 2249 200 2249 200 2249 141.5 c 128,-1,23
 2249 83 2249 83 2207.5 41.5 c 128,-1,24
 2166 0 2166 0 2107 0 c 2,25,-1
 262 0 l 2,26,27
 203 0 203 0 161 42 c 128,-1,28
 119 84 119 84 119 143 c 2,29,-1
 119 2970 l 2,0,1
EndSplineSet
Validated: 1
EndChar

StartChar: F
Encoding: 70 70 29
Width: 2568
GlyphClass: 2
Flags: W
LayerCount: 2
Fore
SplineSet
1 2970 m 2,0,1
 1 3029 1 3029 42.5 3071 c 128,-1,2
 84 3113 84 3113 144 3113 c 2,3,-1
 1988 3113 l 2,4,5
 2047 3113 2047 3113 2088 3071 c 0,6,7
 2130 3028 2130 3028 2130 2971 c 0,8,9
 2130 2913 2130 2913 2088 2871 c 0,10,11
 2047 2830 2047 2830 1988 2830 c 2,12,-1
 283 2830 l 1,13,-1
 283 1699 l 1,14,-1
 1281 1699 l 2,15,16
 1340 1699 1340 1699 1381 1657 c 0,17,18
 1423 1614 1423 1614 1423 1557 c 0,19,20
 1423 1499 1423 1499 1381 1457 c 0,21,22
 1340 1416 1340 1416 1281 1416 c 2,23,-1
 283 1416 l 1,24,-1
 283 143 l 2,25,26
 283 84 283 84 242 43 c 0,27,28
 200 1 200 1 142 1 c 0,29,30
 83 1 83 1 42 43 c 128,-1,31
 1 85 1 85 1 143 c 2,32,-1
 1 2970 l 2,0,1
EndSplineSet
Validated: 1
EndChar

StartChar: G
Encoding: 71 71 30
Width: 2568
GlyphClass: 2
Flags: W
LayerCount: 2
Fore
SplineSet
284 2095 m 6,0,1
 284 1142 l 6,2,3
 284 1072 284 1072 286 1016 c 4,4,5
 287 976 287 976 297 883 c 4,6,7
 305 805 305 805 325 731 c 132,-1,8
 345 657 345 657 376 593 c 4,9,10
 446 449 446 449 561 376 c 4,11,12
 707 283 707 283 939 283 c 4,13,14
 1066 283 1066 283 1174 306 c 132,-1,15
 1282 329 1282 329 1367 371 c 4,16,17
 1449 412 1449 412 1513 464 c 4,18,19
 1577 517 1577 517 1627 578 c 4,20,21
 1689 654 1689 654 1732 753 c 4,22,23
 1776 853 1776 853 1792 930 c 4,24,25
 1809 1011 1809 1011 1809 1084 c 6,26,-1
 1809 1336 l 5,27,-1
 968 1336 l 6,28,29
 910 1336 910 1336 868 1377 c 4,30,31
 827 1417 827 1417 827 1477 c 4,32,33
 827 1536 827 1536 868 1577 c 4,34,35
 910 1619 910 1619 968 1619 c 6,36,-1
 1950 1619 l 6,37,38
 2009 1619 2009 1619 2050 1577 c 4,39,40
 2092 1534 2092 1534 2092 1477 c 6,41,-1
 2092 1084 l 6,42,43
 2092 1008 2092 1008 2078 927 c 4,44,45
 2062 837 2062 837 2037 756 c 4,46,47
 2010 670 2010 670 1961 575 c 4,48,49
 1915 486 1915 486 1848 402 c 4,50,51
 1776 313 1776 313 1689 242 c 4,52,53
 1603 172 1603 172 1489 116 c 132,-1,54
 1375 60 1375 60 1237 30 c 4,55,56
 1097 0 1097 0 939 0 c 4,57,58
 626 0 626 0 409 137 c 4,59,60
 223 255 223 255 120 471 c 4,61,62
 87 540 87 540 63 622 c 4,63,64
 39 702 39 702 28 770 c 4,65,66
 15 850 15 850 9 915 c 4,67,68
 3 979 3 979 2 1038 c 4,69,70
 1 1081 1 1081 1 1142 c 6,71,-1
 1 2095 l 6,72,73
 1 2193 1 2193 20 2297 c 4,74,75
 40 2404 40 2404 83 2518 c 4,76,77
 128 2636 128 2636 195 2734 c 4,78,79
 253 2819 253 2819 322 2883 c 4,80,81
 393 2949 393 2949 484 3002 c 4,82,83
 573 3054 573 3054 688 3083 c 4,84,85
 799 3111 799 3111 921 3111 c 4,86,87
 925 3111 925 3111 929 3111 c 4,88,89
 1524 3111 1524 3111 2058 2472 c 4,90,91
 2096 2427 2096 2427 2091 2369 c 4,92,93
 2086 2310 2086 2310 2042 2273 c 4,94,95
 1997 2235 1997 2235 1938 2240 c 4,96,97
 1880 2245 1880 2245 1842 2290 c 4,98,99
 1387 2829 1387 2829 929 2829 c 4,100,101
 928 2829 928 2829 926 2829 c 4,102,103
 925 2829 925 2829 923 2829 c 4,104,105
 922 2829 922 2829 920 2829 c 4,106,107
 601 2829 601 2829 428 2575 c 4,108,109
 355 2468 355 2468 320 2339 c 4,110,111
 284 2209 284 2209 284 2095 c 6,0,1
EndSplineSet
Validated: 1
EndChar

StartChar: H
Encoding: 72 72 31
Width: 2568
GlyphClass: 2
Flags: W
LayerCount: 2
Fore
SplineSet
142 3113 m 0,0,1
 200 3113 200 3113 241.5 3071.5 c 128,-1,2
 283 3030 283 3030 283 2971 c 2,3,-1
 283 1699 l 1,4,-1
 1807 1699 l 1,5,-1
 1807 2971 l 2,6,7
 1807 3030 1807 3030 1848.5 3071.5 c 128,-1,8
 1890 3113 1890 3113 1948.5 3113 c 128,-1,9
 2007 3113 2007 3113 2048.5 3071.5 c 128,-1,10
 2090 3030 2090 3030 2090 2971 c 2,11,-1
 2090 143 l 2,12,13
 2090 84 2090 84 2048.5 42.5 c 128,-1,14
 2007 1 2007 1 1948.5 1 c 128,-1,15
 1890 1 1890 1 1848.5 42.5 c 128,-1,16
 1807 84 1807 84 1807 143 c 2,17,-1
 1807 1416 l 1,18,-1
 283 1416 l 1,19,-1
 283 143 l 2,20,21
 283 84 283 84 241.5 42.5 c 128,-1,22
 200 1 200 1 141.5 1 c 128,-1,23
 83 1 83 1 41.5 42.5 c 128,-1,24
 0 84 0 84 0 143 c 2,25,-1
 0 2971 l 2,26,27
 0 3030 0 3030 42 3071 c 0,28,29
 83 3113 83 3113 142 3113 c 0,0,1
EndSplineSet
Validated: 1
EndChar

StartChar: I
Encoding: 73 73 32
Width: 2568
GlyphClass: 2
Flags: W
LayerCount: 2
Fore
SplineSet
120 2970.5 m 128,-1,1
 120 3029 120 3029 161 3070.5 c 128,-1,2
 202 3112 202 3112 261 3112 c 2,3,-1
 1833 3112 l 2,4,5
 1891 3112 1891 3112 1932.5 3070.5 c 128,-1,6
 1974 3029 1974 3029 1974 2970.5 c 128,-1,7
 1974 2912 1974 2912 1933 2870.5 c 128,-1,8
 1892 2829 1892 2829 1833 2829 c 2,9,-1
 1188 2829 l 1,10,-1
 1188 283 l 1,11,-1
 1833 283 l 2,12,13
 1891 283 1891 283 1932.5 242 c 128,-1,14
 1974 201 1974 201 1974 142 c 128,-1,15
 1974 83 1974 83 1933 42 c 128,-1,16
 1892 1 1892 1 1833 1 c 2,17,-1
 261 1 l 2,18,19
 203 1 203 1 161.5 42 c 128,-1,20
 120 83 120 83 120 142 c 128,-1,21
 120 201 120 201 161 242 c 128,-1,22
 202 283 202 283 261 283 c 2,23,-1
 905 283 l 1,24,-1
 905 2829 l 1,25,-1
 261 2829 l 2,26,27
 203 2829 203 2829 161.5 2870.5 c 128,-1,0
 120 2912 120 2912 120 2970.5 c 128,-1,1
EndSplineSet
Validated: 1
EndChar

StartChar: J
Encoding: 74 74 33
Width: 2568
GlyphClass: 2
Flags: W
LayerCount: 2
Fore
SplineSet
1197 2971 m 128,-1,1
 1197 3030 1197 3030 1238 3071 c 128,-1,2
 1279 3112 1279 3112 1338 3112 c 2,3,-1
 2146 3112 l 2,4,5
 2205 3112 2205 3112 2246.5 3071 c 128,-1,6
 2288 3030 2288 3030 2288 2971 c 128,-1,7
 2288 2912 2288 2912 2246.5 2870.5 c 128,-1,8
 2205 2829 2205 2829 2146 2829 c 2,9,-1
 1884 2829 l 1,10,-1
 1884 883 l 2,11,12
 1884 798 1884 798 1865 709.5 c 128,-1,13
 1846 621 1846 621 1807.5 534.5 c 128,-1,14
 1769 448 1769 448 1715 369 c 128,-1,15
 1661 290 1661 290 1586 223 c 128,-1,16
 1511 156 1511 156 1424 106.5 c 128,-1,17
 1337 57 1337 57 1228.5 29 c 128,-1,18
 1120 1 1120 1 1002 1 c 0,19,20
 894 1 894 1 795.5 27 c 128,-1,21
 697 53 697 53 622.5 95 c 128,-1,22
 548 137 548 137 481.5 196.5 c 128,-1,23
 415 256 415 256 368.5 315 c 128,-1,24
 322 374 322 374 282 441 c 0,25,26
 205 571 205 571 156 725 c 0,27,28
 141 773 141 773 130 818 c 0,29,30
 125 842 125 842 122 858 c 0,31,32
 111 916 111 916 144.5 964 c 128,-1,33
 178 1012 178 1012 235.5 1022.5 c 128,-1,34
 293 1033 293 1033 341 1000 c 128,-1,35
 389 967 389 967 400 909 c 0,36,37
 401 900 401 900 405 884 c 0,38,39
 414 849 414 849 426 810 c 0,40,41
 466 687 466 687 526 585 c 0,42,43
 704 284 704 284 1002 284 c 0,44,45
 1093 284 1093 284 1176.5 309 c 128,-1,46
 1260 334 1260 334 1325 378 c 128,-1,47
 1390 422 1390 422 1442.5 480 c 128,-1,48
 1495 538 1495 538 1529.5 605 c 128,-1,49
 1564 672 1564 672 1582.5 743 c 128,-1,50
 1601 814 1601 814 1601 883 c 2,51,-1
 1601 2829 l 1,52,-1
 1338 2829 l 2,53,54
 1280 2829 1280 2829 1238.5 2870.5 c 128,-1,0
 1197 2912 1197 2912 1197 2971 c 128,-1,1
EndSplineSet
Validated: 1
EndChar

StartChar: K
Encoding: 75 75 34
Width: 2568
GlyphClass: 2
Flags: W
LayerCount: 2
Fore
SplineSet
322 3113 m 128,-1,1
 378 3113 378 3113 417.5 3073.5 c 128,-1,2
 457 3034 457 3034 457 2978 c 2,3,-1
 457 1545 l 1,4,-1
 1985 3073 l 2,5,6
 2025 3113 2025 3113 2081 3113 c 128,-1,7
 2137 3113 2137 3113 2176.5 3073.5 c 128,-1,8
 2216 3034 2216 3034 2216 2978 c 128,-1,9
 2216 2922 2216 2922 2177 2882 c 2,10,-1
 931 1636 l 1,11,-1
 2182 225 l 2,12,13
 2219 183 2219 183 2216 127 c 128,-1,14
 2213 71 2213 71 2171 34 c 128,-1,15
 2129 -3 2129 -3 2073 0.5 c 128,-1,16
 2017 4 2017 4 1980 46 c 2,17,-1
 740 1445 l 1,18,-1
 457 1162 l 1,19,-1
 457 135 l 2,20,21
 457 79 457 79 417.5 39.5 c 128,-1,22
 378 0 378 0 322 0 c 128,-1,23
 266 0 266 0 226 39.5 c 128,-1,24
 186 79 186 79 186 135 c 2,25,-1
 186 1218 l 1,26,-1
 186 2978 l 2,27,28
 186 3034 186 3034 226 3073.5 c 128,-1,0
 266 3113 266 3113 322 3113 c 128,-1,1
EndSplineSet
Validated: 1
EndChar

StartChar: L
Encoding: 76 76 35
Width: 2568
GlyphClass: 2
Flags: W
LayerCount: 2
Fore
SplineSet
261.5 3113 m 128,-1,1
 320 3113 320 3113 361.5 3071.5 c 128,-1,2
 403 3030 403 3030 403 2971 c 2,3,-1
 403 284 l 1,4,-1
 2108 284 l 2,5,6
 2167 284 2167 284 2208 242.5 c 128,-1,7
 2249 201 2249 201 2249 142.5 c 128,-1,8
 2249 84 2249 84 2207.5 42.5 c 128,-1,9
 2166 1 2166 1 2108 1 c 2,10,-1
 263 1 l 2,11,12
 204 1 204 1 162 43 c 128,-1,13
 120 85 120 85 120 144 c 2,14,-1
 120 2971 l 2,15,16
 120 3030 120 3030 161.5 3071.5 c 128,-1,0
 203 3113 203 3113 261.5 3113 c 128,-1,1
EndSplineSet
Validated: 1
EndChar

StartChar: M
Encoding: 77 77 36
Width: 2568
GlyphClass: 2
Flags: W
LayerCount: 2
Fore
SplineSet
285 3111 m 128,-1,1
 343 3101 343 3101 376 3052 c 2,2,-1
 1105 2035 l 1,3,-1
 1835 3054 l 2,4,5
 1867 3098 1867 3098 1919 3109 c 0,6,7
 1981 3123 1981 3123 2032 3086 c 0,8,9
 2060 3066 2060 3066 2075 3037 c 0,10,11
 2091 3006 2091 3006 2091 2971 c 2,12,-1
 2091 143 l 2,13,14
 2091 84 2091 84 2049.5 42.5 c 128,-1,15
 2008 1 2008 1 1949.5 1 c 128,-1,16
 1891 1 1891 1 1849.5 42.5 c 128,-1,17
 1808 84 1808 84 1808 143 c 2,18,-1
 1808 2531 l 1,19,-1
 1236 1733 l 2,20,21
 1205 1689 1205 1689 1155 1673 c 128,-1,22
 1105 1657 1105 1657 1055 1673 c 128,-1,23
 1005 1689 1005 1689 974 1733 c 2,24,-1
 402 2531 l 1,25,-1
 402 143 l 2,26,27
 402 84 402 84 360.5 42.5 c 128,-1,28
 319 1 319 1 260.5 1 c 128,-1,29
 202 1 202 1 160.5 42.5 c 128,-1,30
 119 84 119 84 119 143 c 2,31,-1
 119 2968 l 2,32,33
 118 2995 118 2995 128 3021 c 0,34,35
 143 3061 143 3061 178 3086 c 0,36,37
 227 3121 227 3121 285 3111 c 128,-1,1
EndSplineSet
Validated: 1
EndChar

StartChar: N
Encoding: 78 78 37
Width: 2568
GlyphClass: 2
Flags: W
LayerCount: 2
Fore
SplineSet
223 3108 m 128,-1,1
 269 3121 269 3121 314 3102 c 128,-1,2
 359 3083 359 3083 383 3042 c 2,3,-1
 1807 656 l 1,4,-1
 1807 2971 l 2,5,6
 1807 3030 1807 3030 1848.5 3071.5 c 128,-1,7
 1890 3113 1890 3113 1948.5 3113 c 128,-1,8
 2007 3113 2007 3113 2048.5 3071.5 c 128,-1,9
 2090 3030 2090 3030 2090 2971 c 2,10,-1
 2090 152 l 2,11,12
 2092 113 2092 113 2074 77.5 c 128,-1,13
 2056 42 2056 42 2022 22 c 128,-1,14
 1988 2 1988 2 1949 2 c 0,15,16
 1909 2 1909 2 1875 22.5 c 128,-1,17
 1841 43 1841 43 1823 78 c 2,18,-1
 402 2459 l 1,19,-1
 402 143 l 2,20,21
 402 84 402 84 360.5 43 c 128,-1,22
 319 2 319 2 260.5 2 c 128,-1,23
 202 2 202 2 160.5 43 c 128,-1,24
 119 84 119 84 119 143 c 2,25,-1
 119 2969 l 2,26,27
 118 3017 118 3017 147.5 3056 c 128,-1,0
 177 3095 177 3095 223 3108 c 128,-1,1
EndSplineSet
Validated: 1
EndChar

StartChar: O
Encoding: 79 79 38
Width: 2568
GlyphClass: 2
Flags: W
LayerCount: 2
Fore
SplineSet
711 2496 m 0,0,1
 616 2331 616 2331 568 2092 c 128,-1,2
 520 1853 520 1853 520 1556 c 0,3,4
 520 1265 520 1265 573 1025.5 c 128,-1,5
 626 786 626 786 726 618 c 0,6,7
 926 283 926 283 1282 283 c 128,-1,8
 1638 283 1638 283 1838 618 c 0,9,10
 1938 786 1938 786 1991 1025.5 c 128,-1,11
 2044 1265 2044 1265 2044 1556 c 0,12,13
 2044 1853 2044 1853 1996 2092 c 128,-1,14
 1948 2331 1948 2331 1853 2496 c 0,15,16
 1759 2660 1759 2660 1618.5 2744.5 c 128,-1,17
 1478 2829 1478 2829 1282 2829 c 128,-1,18
 1086 2829 1086 2829 945.5 2744.5 c 128,-1,19
 805 2660 805 2660 711 2496 c 0,0,1
466 2637 m 0,20,21
 596 2864 596 2864 801.5 2988 c 128,-1,22
 1007 3112 1007 3112 1282.5 3112 c 128,-1,23
 1558 3112 1558 3112 1763 2988 c 128,-1,24
 1968 2864 1968 2864 2099 2637 c 0,25,26
 2327 2242 2327 2242 2327 1562 c 0,27,28
 2327 1559 2327 1559 2327 1556 c 0,29,30
 2327 1234 2327 1234 2266 957.5 c 128,-1,31
 2205 681 2205 681 2081 473 c 0,32,33
 2016 363 2016 363 1933.5 277 c 128,-1,34
 1851 191 1851 191 1751.5 129 c 128,-1,35
 1652 67 1652 67 1533 33.5 c 128,-1,36
 1414 0 1414 0 1282 0 c 128,-1,37
 1150 0 1150 0 1031 33.5 c 128,-1,38
 912 67 912 67 812.5 129 c 128,-1,39
 713 191 713 191 631 277.5 c 128,-1,40
 549 364 549 364 483 473 c 0,41,42
 359 680 359 680 298 957.5 c 128,-1,43
 237 1235 237 1235 237 1556 c 0,44,45
 237 2240 237 2240 466 2637 c 0,20,21
EndSplineSet
Validated: 1
EndChar

StartChar: P
Encoding: 80 80 39
Width: 2568
GlyphClass: 2
Flags: W
LayerCount: 2
Fore
SplineSet
119 2970 m 2,0,1
 119 3029 119 3029 160.5 3071 c 128,-1,2
 202 3113 202 3113 262 3113 c 2,3,-1
 1264 3113 l 2,4,5
 1463 3113 1463 3113 1626.5 3045 c 128,-1,6
 1790 2977 1790 2977 1906 2853 c 0,7,8
 2016 2735 2016 2735 2073 2582.5 c 128,-1,9
 2130 2430 2130 2430 2130 2264 c 0,10,11
 2130 2153 2130 2153 2099 2045.5 c 128,-1,12
 2068 1938 2068 1938 2013 1845 c 128,-1,13
 1958 1752 1958 1752 1878 1672 c 128,-1,14
 1798 1592 1798 1592 1703 1535.5 c 128,-1,15
 1608 1479 1608 1479 1495 1447.5 c 128,-1,16
 1382 1416 1382 1416 1264 1416 c 2,17,-1
 401 1416 l 1,18,-1
 401 143 l 2,19,20
 401 84 401 84 360 42.5 c 128,-1,21
 319 1 319 1 260 1 c 128,-1,22
 201 1 201 1 160 42.5 c 128,-1,23
 119 84 119 84 119 143 c 2,24,-1
 119 2970 l 2,0,1
401 1699 m 1,25,-1
 1264 1699 l 2,26,27
 1344 1699 1344 1699 1420.5 1720.5 c 128,-1,28
 1497 1742 1497 1742 1560.5 1780 c 128,-1,29
 1624 1818 1624 1818 1678 1871.5 c 128,-1,30
 1732 1925 1732 1925 1769 1987.5 c 128,-1,31
 1806 2050 1806 2050 1826.5 2121 c 128,-1,32
 1847 2192 1847 2192 1847 2264 c 0,33,34
 1847 2379 1847 2379 1809 2481.5 c 128,-1,35
 1771 2584 1771 2584 1700 2660 c 0,36,37
 1626 2739 1626 2739 1516.5 2784.5 c 128,-1,38
 1407 2830 1407 2830 1264 2830 c 2,39,-1
 401 2830 l 1,40,-1
 401 1699 l 1,25,-1
EndSplineSet
Validated: 1
EndChar

StartChar: Q
Encoding: 81 81 40
Width: 2568
GlyphClass: 2
Flags: W
LayerCount: 2
Fore
SplineSet
1109 2830 m 128,-1,1
 1000 2830 1000 2830 902 2800 c 128,-1,2
 804 2770 804 2770 727 2716 c 128,-1,3
 650 2662 650 2662 588.5 2587.5 c 128,-1,4
 527 2513 527 2513 486 2424 c 128,-1,5
 445 2335 445 2335 423.5 2234.5 c 128,-1,6
 402 2134 402 2134 402 2029 c 2,7,-1
 402 1086 l 2,8,9
 402 980 402 980 423.5 879.5 c 128,-1,10
 445 779 445 779 485.5 690 c 128,-1,11
 526 601 526 601 588 526.5 c 128,-1,12
 650 452 650 452 727 398 c 128,-1,13
 804 344 804 344 902 314 c 128,-1,14
 1000 284 1000 284 1109 284 c 0,15,16
 1370 284 1370 284 1554 448 c 1,17,18
 1088 906 l 2,19,20
 1046 947 1046 947 1045.5 1005.5 c 128,-1,21
 1045 1064 1045 1064 1086 1106 c 128,-1,22
 1127 1148 1127 1148 1186 1148.5 c 128,-1,23
 1245 1149 1245 1149 1286 1108 c 2,24,-1
 1725 677 l 1,25,26
 1816 863 1816 863 1816 1086 c 2,27,-1
 1816 2029 l 2,28,29
 1816 2135 1816 2135 1794 2235 c 128,-1,30
 1772 2335 1772 2335 1731.5 2424 c 128,-1,31
 1691 2513 1691 2513 1629 2587.5 c 128,-1,32
 1567 2662 1567 2662 1490 2716 c 128,-1,33
 1413 2770 1413 2770 1315.5 2800 c 128,-1,0
 1218 2830 1218 2830 1109 2830 c 128,-1,1
1934 472 m 1,34,-1
 2166 244 l 2,35,36
 2208 203 2208 203 2208.5 144.5 c 128,-1,37
 2209 86 2209 86 2168 44 c 128,-1,38
 2127 2 2127 2 2068.5 1.5 c 128,-1,39
 2010 1 2010 1 1968 42 c 2,40,-1
 1757 249 l 1,41,42
 1632 131 1632 131 1468.5 66 c 128,-1,43
 1305 1 1305 1 1109 1 c 0,44,45
 972 1 972 1 848.5 34 c 128,-1,46
 725 67 725 67 626.5 125.5 c 128,-1,47
 528 184 528 184 445 264.5 c 128,-1,48
 362 345 362 345 302 440.5 c 128,-1,49
 242 536 242 536 200.5 643 c 128,-1,50
 159 750 159 750 139 861.5 c 128,-1,51
 119 973 119 973 119 1086 c 2,52,-1
 119 2029 l 2,53,54
 119 2141 119 2141 139 2252.5 c 128,-1,55
 159 2364 159 2364 201 2471 c 128,-1,56
 243 2578 243 2578 302.5 2673.5 c 128,-1,57
 362 2769 362 2769 445 2849.5 c 128,-1,58
 528 2930 528 2930 626.5 2988.5 c 128,-1,59
 725 3047 725 3047 848.5 3080 c 128,-1,60
 972 3113 972 3113 1108.5 3113 c 128,-1,61
 1245 3113 1245 3113 1369 3080 c 128,-1,62
 1493 3047 1493 3047 1591.5 2988.5 c 128,-1,63
 1690 2930 1690 2930 1773 2849.5 c 128,-1,64
 1856 2769 1856 2769 1915.5 2673.5 c 128,-1,65
 1975 2578 1975 2578 2016.5 2471 c 128,-1,66
 2058 2364 2058 2364 2078.5 2252.5 c 128,-1,67
 2099 2141 2099 2141 2099 2029 c 2,68,-1
 2099 1086 l 2,69,70
 2099 925 2099 925 2057 767 c 128,-1,71
 2015 609 2015 609 1934 472 c 1,34,-1
EndSplineSet
Validated: 1
EndChar

StartChar: R
Encoding: 82 82 41
Width: 2568
GlyphClass: 2
Flags: W
LayerCount: 2
Fore
SplineSet
120 2968 m 2,0,1
 120 3027 120 3027 161.5 3069 c 128,-1,2
 203 3111 203 3111 263 3111 c 2,3,-1
 1267 3111 l 2,4,5
 1466 3111 1466 3111 1629.5 3043.5 c 128,-1,6
 1793 2976 1793 2976 1908 2852 c 0,7,8
 2018 2734 2018 2734 2074.5 2581.5 c 128,-1,9
 2131 2429 2131 2429 2131 2263 c 0,10,11
 2131 2152 2131 2152 2100.5 2044.5 c 128,-1,12
 2070 1937 2070 1937 2014.5 1843.5 c 128,-1,13
 1959 1750 1959 1750 1879.5 1670.5 c 128,-1,14
 1800 1591 1800 1591 1705.5 1534.5 c 128,-1,15
 1611 1478 1611 1478 1498 1446 c 128,-1,16
 1385 1414 1385 1414 1267 1414 c 2,17,-1
 1087 1414 l 1,18,-1
 2172 237 l 2,19,20
 2212 194 2212 194 2209.5 135.5 c 128,-1,21
 2207 77 2207 77 2164 37.5 c 128,-1,22
 2121 -2 2121 -2 2062.5 0.5 c 128,-1,23
 2004 3 2004 3 1964 46 c 2,24,-1
 702 1414 l 1,25,-1
 402 1414 l 1,26,-1
 403 142 l 2,27,28
 403 83 403 83 361.5 41.5 c 128,-1,29
 320 0 320 0 261.5 0 c 128,-1,30
 203 0 203 0 161.5 41.5 c 128,-1,31
 120 83 120 83 120 142 c 2,32,-1
 120 2968 l 2,0,1
402 1697 m 1,33,-1
 1267 1697 l 2,34,35
 1347 1697 1347 1697 1423 1719 c 128,-1,36
 1499 1741 1499 1741 1562.5 1779 c 128,-1,37
 1626 1817 1626 1817 1679.5 1870.5 c 128,-1,38
 1733 1924 1733 1924 1770 1986 c 128,-1,39
 1807 2048 1807 2048 1827.5 2119.5 c 128,-1,40
 1848 2191 1848 2191 1848 2263 c 0,41,42
 1848 2378 1848 2378 1810 2480.5 c 128,-1,43
 1772 2583 1772 2583 1702 2659 c 0,44,45
 1628 2738 1628 2738 1519 2783.5 c 128,-1,46
 1410 2829 1410 2829 1267 2829 c 2,47,-1
 403 2829 l 1,48,-1
 402 1697 l 1,33,-1
EndSplineSet
Validated: 1
EndChar

StartChar: S
Encoding: 83 83 42
Width: 2568
GlyphClass: 2
Flags: W
LayerCount: 2
Fore
SplineSet
2151 2165 m 0,0,1
 2112 2165 2112 2165 2079.5 2184.5 c 128,-1,2
 2047 2204 2047 2204 2029 2237 c 2,3,-1
 2002 2280 l 2,4,5
 1972 2325 1972 2325 1937 2370 c 0,6,7
 1843 2491 1843 2491 1735 2585 c 0,8,9
 1457 2827 1457 2827 1156 2827 c 0,10,11
 939 2826 939 2826 757 2722 c 0,12,13
 626 2647 626 2647 546 2536 c 0,14,15
 462 2420 462 2420 462 2305 c 0,16,17
 462 2114 462 2114 570 1968 c 0,18,19
 658 1848 658 1848 810.5 1777 c 128,-1,20
 963 1706 963 1706 1155 1706 c 0,21,22
 1158 1706 1158 1706 1162 1706 c 0,23,24
 1165 1706 1165 1706 1169 1706 c 0,25,26
 1457 1706 1457 1706 1682 1619 c 0,27,28
 1765 1587 1765 1587 1844 1540 c 0,29,30
 1920 1494 1920 1494 1985 1434.5 c 128,-1,31
 2050 1375 2050 1375 2099 1299 c 128,-1,32
 2148 1223 2148 1223 2176 1136 c 0,33,34
 2213 1023 2213 1023 2213 897 c 0,35,36
 2213 735 2213 735 2147.5 588.5 c 128,-1,37
 2082 442 2082 442 1963 327 c 0,38,39
 1847 213 1847 213 1690 139 c 0,40,41
 1447 25 1447 25 1155 25 c 0,42,43
 894 26 894 26 689 134 c 0,44,45
 438 266 438 266 296 541 c 0,46,47
 244 641 244 641 212 751 c 0,48,49
 190 825 190 825 183 878 c 0,50,51
 182 887 182 887 182 897 c 0,52,53
 182 955 182 955 223 996 c 128,-1,54
 264 1037 264 1037 322 1037 c 0,55,56
 375 1037 375 1037 414.5 1002 c 128,-1,57
 454 967 454 967 461 916 c 0,58,59
 466 881 466 881 481 830 c 0,60,61
 506 745 506 745 545 669 c 0,62,63
 647 473 647 473 819 382 c 0,64,65
 963 305 963 305 1155 305 c 0,66,67
 1346 305 1346 305 1504.5 364.5 c 128,-1,68
 1663 424 1663 424 1768 527 c 0,69,70
 1849 606 1849 606 1891 700.5 c 128,-1,71
 1933 795 1933 795 1933 897 c 0,72,73
 1933 979 1933 979 1910 1049 c 0,74,75
 1882 1132 1882 1132 1823 1199 c 0,76,77
 1725 1310 1725 1310 1550.5 1368 c 128,-1,78
 1376 1426 1376 1426 1155 1426 c 0,79,80
 1022 1426 1022 1426 898.5 1453.5 c 128,-1,81
 775 1481 775 1481 673.5 1531.5 c 128,-1,82
 572 1582 572 1582 489 1650.5 c 128,-1,83
 406 1719 406 1719 344 1802 c 0,84,85
 266 1908 266 1908 224 2036 c 128,-1,86
 182 2164 182 2164 182 2305 c 0,87,88
 182 2510 182 2510 319 2700 c 0,89,90
 434 2861 434 2861 618 2966 c 0,91,92
 864 3107 864 3107 1155 3107 c 0,93,94
 1562 3107 1562 3107 1919 2797 c 0,95,96
 2048 2684 2048 2684 2159 2541 c 0,97,98
 2233 2446 2233 2446 2273 2374 c 0,99,100
 2291 2342 2291 2342 2291 2305 c 0,101,102
 2291 2247 2291 2247 2250 2206 c 128,-1,103
 2209 2165 2209 2165 2151 2165 c 0,0,1
EndSplineSet
Validated: 1
EndChar

StartChar: T
Encoding: 84 84 43
Width: 2568
GlyphClass: 2
Flags: W
LayerCount: 2
Fore
SplineSet
120 2971 m 128,-1,1
 120 3030 120 3030 161.5 3071 c 128,-1,2
 203 3112 203 3112 261 3112 c 2,3,-1
 2147 3112 l 2,4,5
 2206 3112 2206 3112 2247 3071 c 128,-1,6
 2288 3030 2288 3030 2288 2971 c 128,-1,7
 2288 2912 2288 2912 2246.5 2871 c 128,-1,8
 2205 2830 2205 2830 2147 2830 c 2,9,-1
 1345 2830 l 1,10,-1
 1345 142 l 2,11,12
 1345 83 1345 83 1304 42 c 128,-1,13
 1263 1 1263 1 1204 1 c 128,-1,14
 1145 1 1145 1 1104 42.5 c 128,-1,15
 1063 84 1063 84 1063 142 c 2,16,-1
 1063 2830 l 1,17,-1
 261 2830 l 2,18,19
 202 2830 202 2830 161 2871 c 128,-1,0
 120 2912 120 2912 120 2971 c 128,-1,1
EndSplineSet
Validated: 1
EndChar

StartChar: U
Encoding: 85 85 44
Width: 2568
GlyphClass: 2
Flags: W
LayerCount: 2
Fore
SplineSet
260.5 3113 m 128,-1,1
 319 3113 319 3113 360.5 3071.5 c 128,-1,2
 402 3030 402 3030 402 2971 c 2,3,-1
 402 1086 l 2,4,5
 402 968 402 968 426.5 860 c 128,-1,6
 451 752 451 752 495.5 664.5 c 128,-1,7
 540 577 540 577 602.5 505.5 c 128,-1,8
 665 434 665 434 740.5 385.5 c 128,-1,9
 816 337 816 337 904 310.5 c 128,-1,10
 992 284 992 284 1086 284 c 0,11,12
 1179 284 1179 284 1266.5 310.5 c 128,-1,13
 1354 337 1354 337 1429.5 385.5 c 128,-1,14
 1505 434 1505 434 1568 505.5 c 128,-1,15
 1631 577 1631 577 1675.5 664.5 c 128,-1,16
 1720 752 1720 752 1744.5 860 c 128,-1,17
 1769 968 1769 968 1769 1086 c 2,18,-1
 1769 2971 l 2,19,20
 1769 3030 1769 3030 1810.5 3071.5 c 128,-1,21
 1852 3113 1852 3113 1910.5 3113 c 128,-1,22
 1969 3113 1969 3113 2010.5 3071.5 c 128,-1,23
 2052 3030 2052 3030 2052 2971 c 2,24,-1
 2052 1086 l 2,25,26
 2052 938 2052 938 2019.5 798 c 128,-1,27
 1987 658 1987 658 1927.5 538.5 c 128,-1,28
 1868 419 1868 419 1781 319.5 c 128,-1,29
 1694 220 1694 220 1588 149.5 c 128,-1,30
 1482 79 1482 79 1353.5 40 c 128,-1,31
 1225 1 1225 1 1086 1 c 128,-1,32
 947 1 947 1 817.5 40 c 128,-1,33
 688 79 688 79 582.5 149.5 c 128,-1,34
 477 220 477 220 390 319.5 c 128,-1,35
 303 419 303 419 243.5 538.5 c 128,-1,36
 184 658 184 658 151.5 798 c 128,-1,37
 119 938 119 938 119 1086 c 2,38,-1
 119 2971 l 2,39,40
 119 3030 119 3030 160.5 3071.5 c 128,-1,0
 202 3113 202 3113 260.5 3113 c 128,-1,1
EndSplineSet
Validated: 1
EndChar

StartChar: V
Encoding: 86 86 45
Width: 2568
GlyphClass: 2
Flags: W
LayerCount: 2
Fore
SplineSet
1102 2 m 0,0,1
 1063 9 1063 9 1032.5 35 c 128,-1,2
 1002 61 1002 61 990 99 c 2,3,-1
 206 2451 l 2,4,5
 202 2464 202 2464 199 2479 c 2,6,-1
 121 2947 l 2,7,8
 111 3005 111 3005 145.5 3052.5 c 128,-1,9
 180 3100 180 3100 237.5 3110 c 128,-1,10
 295 3120 295 3120 343 3085.5 c 128,-1,11
 391 3051 391 3051 400 2994 c 2,12,-1
 477 2533 l 1,13,-1
 1125 589 l 1,14,-1
 1773 2533 l 1,15,-1
 1850 2994 l 2,16,17
 1860 3052 1860 3052 1907.5 3086 c 128,-1,18
 1955 3120 1955 3120 2012.5 3110 c 128,-1,19
 2070 3100 2070 3100 2104 3052.5 c 128,-1,20
 2138 3005 2138 3005 2129 2947 c 2,21,-1
 2050 2477 l 2,22,23
 2048 2465 2048 2465 2044 2453 c 2,24,-1
 1260 98 l 2,25,26
 1244 49 1244 49 1198.5 21 c 128,-1,27
 1153 -7 1153 -7 1102 2 c 0,0,1
EndSplineSet
Validated: 1
EndChar

StartChar: W
Encoding: 87 87 46
Width: 2568
GlyphClass: 2
Flags: W
LayerCount: 2
Fore
SplineSet
2130 2964 m 2,0,1
 1973 141 l 2,2,3
 1972 104 1972 104 1954 72 c 128,-1,4
 1936 40 1936 40 1903 21 c 0,5,6
 1864 -2 1864 -2 1820 2 c 0,7,8
 1784 5 1784 5 1754 25 c 128,-1,9
 1724 45 1724 45 1707 76 c 2,10,-1
 1125 1074 l 1,11,-1
 542 76 l 2,12,13
 525 45 525 45 495.5 25 c 128,-1,14
 466 5 466 5 430 2 c 0,15,16
 385 -2 385 -2 346 21 c 0,17,18
 313 40 313 40 295 72 c 128,-1,19
 277 104 277 104 276 141 c 2,20,-1
 120 2964 l 2,21,22
 117 3022 117 3022 155.5 3065.5 c 128,-1,23
 194 3109 194 3109 252.5 3112.5 c 128,-1,24
 311 3116 311 3116 355 3077 c 128,-1,25
 399 3038 399 3038 402 2979 c 2,26,-1
 533 621 l 1,27,-1
 1000 1422 l 2,28,29
 1019 1457 1019 1457 1053 1477 c 0,30,31
 1086 1496 1086 1496 1124.5 1496.5 c 128,-1,32
 1163 1497 1163 1497 1196 1477 c 0,33,34
 1231 1457 1231 1457 1249 1422 c 2,35,-1
 1717 621 l 1,36,-1
 1848 2979 l 2,37,38
 1851 3037 1851 3037 1894.5 3076.5 c 128,-1,39
 1938 3116 1938 3116 1996.5 3112.5 c 128,-1,40
 2055 3109 2055 3109 2094 3065.5 c 128,-1,41
 2133 3022 2133 3022 2130 2964 c 2,0,1
EndSplineSet
Validated: 1
EndChar

StartChar: X
Encoding: 88 88 47
Width: 2568
GlyphClass: 2
Flags: W
LayerCount: 2
Fore
SplineSet
260.5 3112 m 128,-1,1
 319 3112 319 3112 360.5 3070.5 c 128,-1,2
 402 3029 402 3029 402 2971 c 2,3,-1
 402 2704 l 1,4,-1
 1085 1792 l 1,5,-1
 1769 2704 l 1,6,-1
 1769 2971 l 2,7,8
 1769 3030 1769 3030 1810.5 3071 c 128,-1,9
 1852 3112 1852 3112 1910.5 3112 c 128,-1,10
 1969 3112 1969 3112 2010.5 3070.5 c 128,-1,11
 2052 3029 2052 3029 2052 2971 c 2,12,-1
 2052 2670 l 2,13,14
 2052 2610 2052 2610 2016 2562 c 2,15,-1
 1262 1557 l 1,16,-1
 2016 552 l 2,17,18
 2052 504 2052 504 2052 444 c 2,19,-1
 2052 142 l 2,20,21
 2052 83 2052 83 2010.5 42 c 128,-1,22
 1969 1 1969 1 1910.5 1 c 128,-1,23
 1852 1 1852 1 1810.5 42.5 c 128,-1,24
 1769 84 1769 84 1769 142 c 2,25,-1
 1769 409 l 1,26,-1
 1085 1321 l 1,27,-1
 402 409 l 1,28,-1
 402 142 l 2,29,30
 402 83 402 83 360.5 42 c 128,-1,31
 319 1 319 1 260.5 1 c 128,-1,32
 202 1 202 1 160.5 42.5 c 128,-1,33
 119 84 119 84 119 142 c 2,34,-1
 119 444 l 2,35,36
 119 504 119 504 155 552 c 2,37,-1
 909 1557 l 1,38,-1
 155 2561 l 2,39,40
 119 2609 119 2609 119 2670 c 2,41,-1
 119 2971 l 2,42,43
 119 3030 119 3030 160.5 3071 c 128,-1,0
 202 3112 202 3112 260.5 3112 c 128,-1,1
EndSplineSet
Validated: 1
EndChar

StartChar: Y
Encoding: 89 89 48
Width: 2568
GlyphClass: 2
Flags: W
LayerCount: 2
Fore
SplineSet
260.5 3112 m 128,-1,1
 319 3112 319 3112 360.5 3070.5 c 128,-1,2
 402 3029 402 3029 402 2971 c 2,3,-1
 402 2703 l 1,4,-1
 1085 1792 l 1,5,-1
 1769 2703 l 1,6,-1
 1769 2971 l 2,7,8
 1769 3030 1769 3030 1810.5 3071 c 128,-1,9
 1852 3112 1852 3112 1910.5 3112 c 128,-1,10
 1969 3112 1969 3112 2010.5 3070.5 c 128,-1,11
 2052 3029 2052 3029 2052 2971 c 2,12,-1
 2052 2669 l 2,13,14
 2052 2609 2052 2609 2016 2561 c 2,15,16
 1227 1509 l 1,17,-1
 1227 142 l 2,18,19
 1227 83 1227 83 1185.5 42 c 128,-1,20
 1144 1 1144 1 1085.5 1 c 128,-1,21
 1027 1 1027 1 985.5 42.5 c 128,-1,22
 944 84 944 84 944 142 c 2,23,-1
 944 1509 l 1,24,-1
 155 2561 l 2,25,26
 119 2609 119 2609 119 2669 c 2,27,-1
 119 2971 l 2,28,29
 119 3030 119 3030 160.5 3071 c 128,-1,0
 202 3112 202 3112 260.5 3112 c 128,-1,1
EndSplineSet
Validated: 1
EndChar

StartChar: Z
Encoding: 90 90 49
Width: 2568
GlyphClass: 2
Flags: W
LayerCount: 2
Fore
SplineSet
2065 3113 m 2,0,1
 2104 3114 2104 3114 2138 3093.5 c 128,-1,2
 2172 3073 2172 3073 2191 3039 c 128,-1,3
 2210 3005 2210 3005 2208 2965.5 c 128,-1,4
 2206 2926 2206 2926 2185 2893 c 2,5,-1
 518 284 l 1,6,-1
 2067 284 l 2,7,8
 2126 284 2126 284 2167 242.5 c 128,-1,9
 2208 201 2208 201 2208 142.5 c 128,-1,10
 2208 84 2208 84 2166.5 42.5 c 128,-1,11
 2125 1 2125 1 2067 1 c 2,12,-1
 265 1 l 2,13,14
 222 0 222 0 185 23.5 c 128,-1,15
 148 47 148 47 131 86 c 0,16,17
 117 119 117 119 120 155.5 c 128,-1,18
 123 192 123 192 143 222 c 2,19,-1
 1809 2830 l 1,20,-1
 260 2830 l 2,21,22
 201 2830 201 2830 160 2871.5 c 128,-1,23
 119 2913 119 2913 119 2971.5 c 128,-1,24
 119 3030 119 3030 160.5 3071.5 c 128,-1,25
 202 3113 202 3113 260 3113 c 2,26,-1
 2065 3113 l 2,0,1
EndSplineSet
Validated: 1
EndChar

StartChar: s
Encoding: 115 115 50
Width: 2568
GlyphClass: 2
Flags: W
LayerCount: 2
Fore
SplineSet
351 2026 m 0,0,1
 557 2170 557 2170 928 2170 c 0,2,3
 1242 2170 1242 2170 1544 1963 c 0,4,5
 1692 1862 1692 1862 1782 1758 c 0,6,7
 1820 1714 1820 1714 1816 1655.5 c 128,-1,8
 1812 1597 1812 1597 1768 1558.5 c 128,-1,9
 1724 1520 1724 1520 1665.5 1524 c 128,-1,10
 1607 1528 1607 1528 1569 1572 c 0,11,12
 1499 1651 1499 1651 1384 1730 c 0,13,14
 1155 1887 1155 1887 928 1887 c 0,15,16
 647 1887 647 1887 513 1794 c 0,17,18
 458 1756 458 1756 430 1698.5 c 128,-1,19
 402 1641 402 1641 402 1557 c 0,20,21
 402 1496 402 1496 438.5 1448.5 c 128,-1,22
 475 1401 475 1401 559 1359 c 0,23,24
 610 1333 610 1333 682.5 1309 c 128,-1,25
 755 1285 755 1285 806.5 1271.5 c 128,-1,26
 858 1258 858 1258 956 1234 c 0,27,28
 990 1226 990 1226 1002 1222 c 0,29,30
 1011 1220 1011 1220 1051 1210 c 0,31,32
 1149 1186 1149 1186 1205.5 1171 c 128,-1,33
 1262 1156 1262 1156 1350 1126 c 128,-1,34
 1438 1096 1438 1096 1503 1064 c 0,35,36
 1554 1038 1554 1038 1597.5 1008.5 c 128,-1,37
 1641 979 1641 979 1682.5 938 c 128,-1,38
 1724 897 1724 897 1753 850 c 128,-1,39
 1782 803 1782 803 1799.5 742 c 128,-1,40
 1817 681 1817 681 1817 613 c 0,41,42
 1817 463 1817 463 1758 343.5 c 128,-1,43
 1699 224 1699 224 1584 143 c 0,44,45
 1378 0 1378 0 1007 0 c 0,46,47
 701 0 701 0 404 163 c 0,48,49
 256 244 256 244 164 328 c 0,50,51
 121 368 121 368 118.5 426.5 c 128,-1,52
 116 485 116 485 156 528 c 128,-1,53
 196 571 196 571 254.5 573.5 c 128,-1,54
 313 576 313 576 356 536 c 0,55,56
 423 474 423 474 539 411 c 0,57,58
 773 283 773 283 1007 283 c 0,59,60
 1289 283 1289 283 1422 376 c 0,61,62
 1477 414 1477 414 1505.5 471.5 c 128,-1,63
 1534 529 1534 529 1534 613 c 0,64,65
 1534 674 1534 674 1497 721.5 c 128,-1,66
 1460 769 1460 769 1376 811 c 0,67,68
 1325 836 1325 836 1253.5 860.5 c 128,-1,69
 1182 885 1182 885 1130.5 898.5 c 128,-1,70
 1079 912 1079 912 982 936 c 0,71,72
 953 943 953 943 934 948 c 0,73,74
 922 951 922 951 886 959 c 0,75,76
 788 983 788 983 731 998 c 128,-1,77
 674 1013 674 1013 585.5 1043.5 c 128,-1,78
 497 1074 497 1074 432 1106 c 0,79,80
 381 1132 381 1132 338 1161.5 c 128,-1,81
 295 1191 295 1191 253 1232.5 c 128,-1,82
 211 1274 211 1274 182.5 1320.5 c 128,-1,83
 154 1367 154 1367 136.5 1428 c 128,-1,84
 119 1489 119 1489 119 1557 c 0,85,86
 119 1707 119 1707 177.5 1826.5 c 128,-1,87
 236 1946 236 1946 351 2026 c 0,0,1
EndSplineSet
Validated: 1
EndChar

StartChar: degree
Encoding: 176 176 51
Width: 2568
GlyphClass: 2
Flags: W
LayerCount: 2
Fore
SplineSet
1613 2284 m 132,-1,1
 1512 2284 1512 2284 1420 2323.5 c 132,-1,2
 1328 2363 1328 2363 1262 2429.5 c 132,-1,3
 1196 2496 1196 2496 1156.5 2587.5 c 132,-1,4
 1117 2679 1117 2679 1117 2780 c 132,-1,5
 1117 2881 1117 2881 1156.5 2973 c 132,-1,6
 1196 3065 1196 3065 1262 3131.5 c 132,-1,7
 1328 3198 1328 3198 1420 3237.5 c 132,-1,8
 1512 3277 1512 3277 1613 3277 c 132,-1,9
 1714 3277 1714 3277 1806 3237.5 c 132,-1,10
 1898 3198 1898 3198 1964.5 3131.5 c 132,-1,11
 2031 3065 2031 3065 2070 2973 c 132,-1,12
 2109 2881 2109 2881 2109 2780 c 132,-1,13
 2109 2679 2109 2679 2070 2587.5 c 132,-1,14
 2031 2496 2031 2496 1964.5 2429.5 c 132,-1,15
 1898 2363 1898 2363 1806 2323.5 c 132,-1,0
 1714 2284 1714 2284 1613 2284 c 132,-1,1
1613.5 2557 m 132,-1,17
 1706 2557 1706 2557 1771.5 2622.5 c 132,-1,18
 1837 2688 1837 2688 1837 2780.5 c 132,-1,19
 1837 2873 1837 2873 1771.5 2938.5 c 132,-1,20
 1706 3004 1706 3004 1613.5 3004 c 132,-1,21
 1521 3004 1521 3004 1455.5 2938.5 c 132,-1,22
 1390 2873 1390 2873 1390 2780.5 c 132,-1,23
 1390 2688 1390 2688 1455.5 2622.5 c 132,-1,16
 1521 2557 1521 2557 1613.5 2557 c 132,-1,17
EndSplineSet
Validated: 1
EndChar

StartChar: H22073
Encoding: 9633 9633 52
Width: 2568
GlyphClass: 2
Flags: W
LayerCount: 2
Fore
SplineSet
319 2969 m 2,0,-1
 2193 2969 l 2,1,2
 2263 2969 2263 2969 2313 2919 c 128,-1,3
 2363 2869 2363 2869 2363 2799 c 2,4,-1
 2363 166 l 2,5,6
 2363 96 2363 96 2313 46.5 c 128,-1,7
 2263 -3 2263 -3 2193 -3 c 2,8,-1
 319 -3 l 2,9,10
 249 -3 249 -3 199 46.5 c 128,-1,11
 149 96 149 96 149 166 c 2,12,-1
 149 2799 l 2,13,14
 149 2869 149 2869 199 2919 c 128,-1,15
 249 2969 249 2969 319 2969 c 2,0,-1
485 332 m 1,16,-1
 2026 332 l 1,17,-1
 2026 2632 l 1,18,-1
 485 2632 l 1,19,-1
 485 332 l 1,16,-1
EndSplineSet
Validated: 1
EndChar

StartChar: uni25AF
Encoding: 9647 9647 53
Width: 2568
GlyphClass: 2
Flags: W
LayerCount: 2
Fore
SplineSet
120 2969 m 2,0,1
 120 3028 120 3028 161.5 3070 c 128,-1,2
 203 3112 203 3112 263 3112 c 2,3,-1
 1949 3112 l 2,4,5
 2008 3112 2008 3112 2050 3070.5 c 128,-1,6
 2092 3029 2092 3029 2092 2969 c 2,7,-1
 2092 144 l 2,8,9
 2092 85 2092 85 2050 43 c 128,-1,10
 2008 1 2008 1 1949 1 c 2,11,-1
 263 1 l 2,12,13
 204 1 204 1 162 43 c 128,-1,14
 120 85 120 85 120 144 c 2,15,-1
 120 2969 l 2,0,1
402 2829 m 1,16,-1
 402 284 l 1,17,-1
 1809 284 l 1,18,-1
 1809 2829 l 1,19,-1
 402 2829 l 1,16,-1
EndSplineSet
Validated: 1
EndChar

StartChar: semicolon
Encoding: 59 59 55
Width: 2568
Flags: W
LayerCount: 2
Fore
SplineSet
591 2357 m 2,0,1
 591 2422 591 2422 637 2468 c 128,-1,2
 683 2514 683 2514 749 2514 c 2,3,-1
 1141 2514 l 2,4,5
 1206 2514 1206 2514 1252.5 2468 c 128,-1,6
 1299 2422 1299 2422 1299 2357 c 2,7,-1
 1299 1964 l 2,8,9
 1299 1899 1299 1899 1253 1853 c 128,-1,10
 1207 1807 1207 1807 1141 1807 c 2,11,-1
 749 1807 l 2,12,13
 684 1807 684 1807 637.5 1853 c 128,-1,14
 591 1899 591 1899 591 1964 c 2,15,-1
 591 2357 l 2,0,1
591 943 m 2,16,17
 591 1008 591 1008 637 1054 c 128,-1,18
 683 1100 683 1100 749 1100 c 2,19,-1
 1141 1100 l 2,20,21
 1206 1100 1206 1100 1252.5 1054 c 128,-1,22
 1299 1008 1299 1008 1299 943 c 2,23,-1
 1299 550 l 2,24,25
 1299 485 1299 485 1253 439 c 128,-1,26
 1207 393 1207 393 1141 393 c 2,27,-1
 749 393 l 2,28,29
 684 393 684 393 637.5 439 c 128,-1,30
 591 485 591 485 591 550 c 2,31,-1
 591 943 l 2,16,17
EndSplineSet
Validated: 1
EndChar

